# Blender v3.2.1 OBJ File: ''
# www.blender.org
mtllib Base.mtl
o polygon1.002
v -0.066592 0.072939 0.100811
v -0.066592 0.074551 -0.100781
v -0.066592 0.043418 0.118369
v -0.066592 0.079111 -0.097012
v -0.066592 0.079111 0.097012
v -0.066592 0.080586 0.090986
v 0.066738 0.074551 -0.100781
v 0.066738 0.074580 0.100830
v 0.066738 0.043447 -0.117588
v 0.066738 0.079111 0.097012
v 0.066738 0.079111 -0.097012
v 0.066738 0.080586 -0.091943
v 0.066738 0.037754 0.118369
v 0.066738 0.037734 -0.117588
v 0.066738 0.043418 0.118369
v -0.066592 0.037734 -0.117588
v -0.066592 0.037754 0.118369
v -0.066592 0.043447 -0.117588
v 0.066738 0.000596 -0.097012
v 0.066738 0.004131 0.100898
v 0.066738 0.000596 0.097012
v 0.066738 0.004131 -0.100752
v -0.066592 0.004131 0.100898
v -0.066592 0.004131 -0.100752
v -0.066592 0.000596 0.097012
v -0.066592 0.000596 -0.097012
v 0.066738 0.080586 0.090986
v -0.066592 0.080586 -0.091943
v -0.067725 0.001553 0.000000
v -0.094854 0.001553 0.000000
v -0.067725 0.005586 -0.015049
v -0.094854 0.005586 0.015049
v -0.067725 0.005586 0.015049
v -0.094854 0.016611 0.026074
v -0.067725 0.016611 0.026074
v -0.094854 0.031660 0.030107
v -0.067725 0.031660 0.030107
v -0.094854 0.046709 0.026074
v -0.067725 0.046709 0.026074
v -0.094854 0.057725 0.015049
v -0.067725 0.057725 0.015049
v -0.094854 0.061758 0.000000
v -0.067725 0.061758 0.000000
v -0.094854 0.057725 -0.015049
v -0.067725 0.057725 -0.015049
v -0.094854 0.046709 -0.026074
v -0.067725 0.046709 -0.026074
v -0.094854 0.031660 -0.030107
v -0.067725 0.031660 -0.030107
v -0.094854 0.016611 -0.026074
v -0.067725 0.016611 -0.026074
v -0.094854 0.005586 -0.015049
v -0.098574 0.040381 0.102940
v -0.066738 0.012764 0.094619
v -0.098574 0.012764 0.094619
v -0.066738 0.040381 0.102940
v -0.098574 0.040859 0.109346
v -0.066738 0.040859 0.109346
v -0.098574 0.008408 0.099443
v -0.066738 0.008408 0.099443
v -0.098574 0.000781 0.078486
v -0.066738 0.000781 0.078486
v -0.098574 0.000781 -0.078379
v -0.066738 0.000781 -0.078379
v -0.098574 0.007070 -0.099033
v -0.066738 0.007070 -0.099033
v -0.098574 0.040859 -0.108516
v -0.066738 0.040859 -0.108516
v -0.098574 0.040381 -0.101865
v -0.066738 0.040381 -0.101865
v -0.098574 0.011025 -0.093242
v -0.066738 0.011025 -0.093242
v -0.098574 0.006494 -0.078379
v -0.066738 0.006494 -0.078379
v -0.098574 0.006494 0.078486
v -0.066738 0.006494 0.078486
v 0.067725 0.010176 -0.083828
v 0.094854 0.006143 -0.068770
v 0.067725 0.006143 -0.068770
v 0.094854 0.010176 -0.083828
v 0.067725 0.021201 -0.094844
v 0.094854 0.021201 -0.094844
v 0.067725 0.036250 -0.098877
v 0.094854 0.036250 -0.098877
v 0.067725 0.051299 -0.094844
v 0.094854 0.051299 -0.094844
v 0.067725 0.062324 -0.083828
v 0.094854 0.062324 -0.083828
v 0.067725 0.066357 -0.068770
v 0.094854 0.066357 -0.068770
v 0.067725 0.062324 -0.053721
v 0.094854 0.062324 -0.053721
v 0.067725 0.051299 -0.042705
v 0.094854 0.051299 -0.042705
v 0.067725 0.036250 -0.038672
v 0.094854 0.036250 -0.038672
v 0.067725 0.021201 -0.042705
v 0.094854 0.021201 -0.042705
v 0.067725 0.010176 -0.053721
v 0.094854 0.010176 -0.053721
v 0.067725 0.005586 -0.015049
v 0.094854 0.001553 0.000000
v 0.067725 0.001553 0.000000
v 0.094854 0.005586 -0.015049
v 0.067725 0.016611 -0.026074
v 0.094854 0.016611 -0.026074
v 0.067725 0.031660 -0.030107
v 0.094854 0.031660 -0.030107
v 0.067725 0.046709 -0.026074
v 0.094854 0.046709 -0.026074
v 0.067725 0.057725 -0.015049
v 0.094854 0.057725 -0.015049
v 0.067725 0.061758 0.000000
v 0.094854 0.061758 0.000000
v 0.067725 0.057725 0.015049
v 0.094854 0.057725 0.015049
v 0.067725 0.046709 0.026074
v 0.094854 0.046709 0.026074
v 0.067725 0.031660 0.030107
v 0.094854 0.031660 0.030107
v 0.067725 0.016611 0.026074
v 0.094854 0.016611 0.026074
v 0.067725 0.005586 0.015049
v 0.094854 0.005586 0.015049
v 0.067725 0.010176 0.054531
v 0.094854 0.006143 0.069580
v 0.067725 0.006143 0.069580
v 0.094854 0.010176 0.054531
v 0.067725 0.021201 0.043516
v 0.094854 0.021201 0.043516
v 0.067725 0.036250 0.039482
v 0.094854 0.036250 0.039482
v 0.067725 0.051299 0.043516
v 0.094854 0.051299 0.043516
v 0.067725 0.062324 0.054531
v 0.094854 0.062324 0.054531
v 0.067725 0.066357 0.069580
v 0.094854 0.066357 0.069580
v 0.067725 0.062324 0.084629
v 0.094854 0.062324 0.084629
v 0.067725 0.051299 0.095654
v 0.094854 0.051299 0.095654
v 0.067725 0.036250 0.099688
v 0.094854 0.036250 0.099688
v 0.067725 0.021201 0.095654
v 0.094854 0.021201 0.095654
v 0.067725 0.010176 0.084629
v 0.094854 0.010176 0.084629
v -0.067725 0.006143 -0.068770
v -0.094854 0.006143 -0.068770
v -0.067725 0.010176 -0.083828
v -0.094854 0.010176 -0.053721
v -0.067725 0.010176 -0.053721
v -0.094854 0.021201 -0.042705
v -0.067725 0.021201 -0.042705
v -0.094854 0.036250 -0.038672
v -0.067725 0.036250 -0.038672
v -0.094854 0.051299 -0.042705
v -0.067725 0.051299 -0.042705
v -0.094854 0.062324 -0.053721
v -0.067725 0.062324 -0.053721
v -0.094854 0.066357 -0.068770
v -0.067725 0.066357 -0.068770
v -0.094854 0.062324 -0.083828
v -0.067725 0.062324 -0.083828
v -0.094854 0.051299 -0.094844
v -0.067725 0.051299 -0.094844
v -0.094854 0.036250 -0.098877
v -0.067725 0.036250 -0.098877
v -0.094854 0.021201 -0.094844
v -0.067725 0.021201 -0.094844
v -0.094854 0.010176 -0.083828
v -0.067725 0.006143 0.069580
v -0.094854 0.006143 0.069580
v -0.067725 0.010176 0.054531
v -0.094854 0.010176 0.084629
v -0.067725 0.010176 0.084629
v -0.094854 0.021201 0.095654
v -0.067725 0.021201 0.095654
v -0.094854 0.036250 0.099688
v -0.067725 0.036250 0.099688
v -0.094854 0.051299 0.095654
v -0.067725 0.051299 0.095654
v -0.094854 0.062324 0.084629
v -0.067725 0.062324 0.084629
v -0.094854 0.066357 0.069580
v -0.067725 0.066357 0.069580
v -0.094854 0.062324 0.054531
v -0.067725 0.062324 0.054531
v -0.094854 0.051299 0.043516
v -0.067725 0.051299 0.043516
v -0.094854 0.036250 0.039482
v -0.067725 0.036250 0.039482
v -0.094854 0.021201 0.043516
v -0.067725 0.021201 0.043516
v -0.094854 0.010176 0.054531
v 0.098574 0.008408 0.099443
v 0.098574 0.006494 0.078486
v 0.098574 0.012764 0.094619
v 0.098574 0.000781 0.078486
v 0.066738 0.008408 0.099443
v 0.066738 0.000781 0.078486
v 0.066738 0.012764 0.094619
v 0.066738 0.006494 0.078486
v 0.098574 0.006494 -0.078379
v 0.098574 0.000781 -0.078379
v 0.066738 0.000781 -0.078379
v 0.066738 0.006494 -0.078379
v 0.098574 0.011025 -0.093242
v 0.098574 0.007070 -0.099033
v 0.066738 0.007070 -0.099033
v 0.066738 0.011025 -0.093242
v 0.098574 0.040381 -0.101865
v 0.098574 0.040859 -0.108516
v 0.066738 0.040859 -0.108516
v 0.066738 0.040381 -0.101865
v 0.098574 0.040381 0.102940
v 0.098574 0.040859 0.109346
v 0.066738 0.040381 0.102940
v 0.066738 0.040859 0.109346
v 0.100146 0.038359 0.109473
v 0.095527 0.076670 0.092900
v 0.095527 0.038359 0.114082
v 0.100146 0.072051 0.090176
v 0.100146 0.072051 -0.090234
v 0.095527 0.076670 -0.092900
v 0.095527 0.038359 -0.114912
v -0.100000 0.038359 -0.109473
v -0.095381 0.076670 -0.092900
v -0.095381 0.038359 -0.114082
v -0.100000 0.072051 -0.090176
v -0.100000 0.072051 0.090234
v -0.095381 0.076670 0.092900
v -0.095381 0.038359 0.114912
v -0.100547 0.036250 -0.068770
v -0.100547 0.031660 0.000000
v -0.100547 0.036250 0.069580
v 0.100547 0.031660 0.000000
v 0.100547 0.036250 0.069580
v 0.100547 0.036250 -0.068770
v -0.066592 0.076670 0.092900
v -0.066592 0.038359 0.114912
v -0.066592 0.076670 -0.092900
v 0.100146 0.038359 -0.110303
v 0.066738 0.038359 0.114082
v 0.066738 0.076670 0.092900
v 0.066738 0.076670 -0.092900
v 0.066738 0.038359 -0.114912
v -0.100000 0.038359 0.110303
v -0.066592 0.038359 -0.114082
vt 0.125000 0.906250
vt 0.125000 0.906250
vt 0.125000 0.906250
vt 0.125000 0.906250
vt 0.125000 0.906250
vt 0.125000 0.906250
vt 0.125000 0.906250
vt 0.125000 0.906250
vt 0.125000 0.906250
vt 0.125000 0.906250
vt 0.125000 0.906250
vt 0.125000 0.906250
vt 0.375000 0.562500
vt 0.375000 0.562500
vt 0.375000 0.562500
vt 0.375000 0.562500
vt 0.468750 0.531250
vt 0.468750 0.531250
vt 0.468750 0.531250
vt 0.468750 0.531250
vt 0.468750 0.531250
vt 0.468750 0.531250
vt 0.468750 0.531250
vt 0.468750 0.531250
vt 0.468750 0.531250
vt 0.468750 0.531250
vt 0.468750 0.531250
vt 0.468750 0.531250
vt 0.468750 0.531250
vt 0.468750 0.531250
vt 0.468750 0.531250
vt 0.468750 0.531250
vt 0.468750 0.531250
vt 0.468750 0.531250
vt 0.468750 0.531250
vt 0.468750 0.531250
vt 0.468750 0.531250
vt 0.468750 0.531250
vt 0.468750 0.531250
vt 0.468750 0.531250
vt 0.156250 0.625000
vt 0.156250 0.625000
vt 0.156250 0.625000
vt 0.156250 0.625000
vt 0.156250 0.625000
vt 0.156250 0.625000
vt 0.156250 0.625000
vt 0.156250 0.625000
vt 0.156250 0.625000
vt 0.156250 0.625000
vt 0.156250 0.625000
vt 0.156250 0.625000
vt 0.156250 0.625000
vt 0.156250 0.625000
vt 0.156250 0.625000
vt 0.468750 0.531250
vt 0.468750 0.531250
vt 0.468750 0.531250
vt 0.468750 0.531250
vt 0.468750 0.531250
vt 0.468750 0.531250
vt 0.468750 0.531250
vt 0.468750 0.531250
vt 0.468750 0.531250
vt 0.468750 0.531250
vt 0.468750 0.531250
vt 0.468750 0.531250
vt 0.468750 0.531250
vt 0.468750 0.531250
vt 0.468750 0.531250
vt 0.468750 0.531250
vt 0.468750 0.531250
vt 0.468750 0.531250
vt 0.468750 0.531250
vt 0.468750 0.531250
vt 0.468750 0.531250
vt 0.468750 0.531250
vt 0.468750 0.531250
vt 0.468750 0.531250
vt 0.468750 0.531250
vt 0.468750 0.531250
vt 0.468750 0.531250
vt 0.468750 0.531250
vt 0.468750 0.531250
vt 0.468750 0.531250
vt 0.468750 0.531250
vt 0.468750 0.531250
vt 0.468750 0.531250
vt 0.468750 0.531250
vt 0.468750 0.531250
vt 0.468750 0.531250
vt 0.468750 0.531250
vt 0.468750 0.531250
vt 0.468750 0.531250
vt 0.468750 0.531250
vt 0.468750 0.531250
vt 0.468750 0.531250
vt 0.468750 0.531250
vt 0.468750 0.531250
vt 0.468750 0.531250
vt 0.468750 0.531250
vt 0.468750 0.531250
vt 0.468750 0.531250
vt 0.468750 0.531250
vt 0.468750 0.531250
vt 0.468750 0.531250
vt 0.468750 0.531250
vt 0.468750 0.531250
vt 0.468750 0.531250
vt 0.468750 0.531250
vt 0.468750 0.531250
vt 0.468750 0.531250
vt 0.468750 0.531250
vt 0.468750 0.531250
vt 0.468750 0.531250
vt 0.468750 0.531250
vt 0.468750 0.531250
vt 0.468750 0.531250
vt 0.468750 0.531250
vt 0.468750 0.531250
vt 0.468750 0.531250
vt 0.468750 0.531250
vt 0.468750 0.531250
vt 0.468750 0.531250
vt 0.468750 0.531250
vt 0.468750 0.531250
vt 0.468750 0.531250
vt 0.468750 0.531250
vt 0.468750 0.531250
vt 0.468750 0.531250
vt 0.468750 0.531250
vt 0.468750 0.531250
vt 0.468750 0.531250
vt 0.468750 0.531250
vt 0.468750 0.531250
vt 0.468750 0.531250
vt 0.468750 0.531250
vt 0.468750 0.531250
vt 0.468750 0.531250
vt 0.468750 0.531250
vt 0.468750 0.531250
vt 0.468750 0.531250
vt 0.468750 0.531250
vt 0.468750 0.531250
vt 0.468750 0.531250
vt 0.468750 0.531250
vt 0.468750 0.531250
vt 0.468750 0.531250
vt 0.468750 0.531250
vt 0.468750 0.531250
vt 0.468750 0.531250
vt 0.468750 0.531250
vt 0.468750 0.531250
vt 0.468750 0.531250
vt 0.468750 0.531250
vt 0.468750 0.531250
vt 0.468750 0.531250
vt 0.468750 0.531250
vt 0.468750 0.531250
vt 0.468750 0.531250
vt 0.468750 0.531250
vt 0.468750 0.531250
vt 0.468750 0.531250
vt 0.468750 0.531250
vt 0.468750 0.531250
vt 0.468750 0.531250
vt 0.468750 0.531250
vt 0.468750 0.531250
vt 0.468750 0.531250
vt 0.468750 0.531250
vt 0.468750 0.531250
vt 0.468750 0.531250
vt 0.468750 0.531250
vt 0.468750 0.531250
vt 0.468750 0.531250
vt 0.156250 0.625000
vt 0.156250 0.625000
vt 0.156250 0.625000
vt 0.156250 0.625000
vt 0.156250 0.625000
vt 0.156250 0.625000
vt 0.156250 0.625000
vt 0.156250 0.625000
vt 0.156250 0.625000
vt 0.156250 0.625000
vt 0.156250 0.625000
vt 0.156250 0.625000
vt 0.156250 0.625000
vt 0.156250 0.625000
vt 0.156250 0.625000
vt 0.156250 0.625000
vt 0.156250 0.625000
vt 0.156250 0.625000
vt 0.156250 0.625000
vt 0.156250 0.625000
vt 0.156250 0.625000
vt 0.156250 0.625000
vt 0.156250 0.625000
vt 0.375000 0.562500
vt 0.375000 0.562500
vt 0.375000 0.562500
vt 0.375000 0.562500
vt 0.468750 0.531250
vt 0.468750 0.531250
vt 0.468750 0.531250
vt 0.468750 0.531250
vt 0.468750 0.531250
vt 0.468750 0.531250
vt 0.375000 0.562500
vt 0.375000 0.562500
vt 0.375000 0.562500
vt 0.375000 0.562500
vt 0.375000 0.562500
vt 0.375000 0.562500
vt 0.375000 0.562500
vt 0.375000 0.562500
vt 0.375000 0.562500
vt 0.375000 0.562500
vt 0.375000 0.562500
vt 0.375000 0.562500
vt 0.375000 0.562500
vt 0.375000 0.562500
vt 0.375000 0.562500
vt 0.375000 0.562500
vt 0.375000 0.562500
vt 0.375000 0.562500
vt 0.375000 0.562500
vt 0.375000 0.562500
vt 0.156250 0.843750
vt 0.156250 0.843750
vt 0.156250 0.843750
vt 0.156250 0.843750
vt 0.156250 0.843750
vt 0.156250 0.843750
vt 0.156250 0.843750
vt 0.156250 0.843750
vt 0.156250 0.843750
vt 0.156250 0.843750
vt 0.156250 0.843750
vt 0.156250 0.843750
vt 0.156250 0.843750
vt 0.156250 0.843750
vt 0.605927 0.008972
vt 0.394074 0.133972
vt 0.394074 0.008972
vt 0.605927 0.133972
vt 0.021179 0.864624
vt 0.978821 0.729279
vt 0.978821 0.864624
vt 0.021179 0.729279
vt 0.156250 0.843750
vt 0.605927 0.008972
vt 0.394074 0.133972
vt 0.394074 0.008972
vt 0.605927 0.133972
vt 0.605927 0.008972
vt 0.394074 0.133972
vt 0.394074 0.008972
vt 0.605927 0.133972
vt 0.021179 0.864624
vt 0.978821 0.729279
vt 0.978821 0.864624
vt 0.021179 0.729279
vt 0.156250 0.843750
vt 0.605927 0.008972
vt 0.394074 0.133972
vt 0.394074 0.008972
vt 0.605927 0.133972
vt 0.156250 0.625000
vt 0.156250 0.625000
vt 0.156250 0.625000
vt 0.156250 0.625000
vt 0.156250 0.625000
vt 0.156250 0.625000
vt 0.156250 0.625000
vt 0.156250 0.625000
vt 0.156250 0.625000
vt 0.156250 0.625000
vn 1.0000 0.0000 0.0000
vn -1.0000 0.0000 0.0000
vn 0.0000 -1.0000 -0.0000
vn -0.5907 -0.8069 -0.0000
vn 0.0000 -0.8660 -0.5000
vn -0.5907 -0.6988 0.4035
vn 0.0000 -0.8660 0.5000
vn -0.5907 -0.4035 0.6988
vn 0.0000 -0.5000 0.8660
vn -0.5907 -0.0000 0.8069
vn 0.0000 -0.0000 1.0000
vn -0.5907 0.4036 0.6987
vn 0.0000 0.5002 0.8659
vn -0.5907 0.6989 0.4033
vn 0.0000 0.8661 0.4998
vn -0.5907 0.8069 0.0000
vn 0.0000 1.0000 0.0000
vn -0.5907 0.6989 -0.4033
vn 0.0000 0.8661 -0.4998
vn -0.5907 0.4036 -0.6987
vn 0.0000 0.5002 -0.8659
vn -0.5907 -0.0000 -0.8069
vn 0.0000 0.0000 -1.0000
vn -0.5907 -0.4035 -0.6988
vn 0.0000 -0.5000 -0.8660
vn -0.5907 -0.6988 -0.4035
vn -0.5992 0.6244 -0.5011
vn 0.8202 0.3884 -0.4199
vn -0.8202 0.3884 -0.4199
vn 0.5992 0.6244 -0.5011
vn -0.5603 0.5173 0.6469
vn 0.5603 0.5173 0.6469
vn 0.5985 0.6237 0.5027
vn 0.5613 0.5233 -0.6412
vn -0.5985 0.6237 0.5027
vn -0.8310 0.3913 0.3953
vn 0.8310 0.3913 0.3953
vn -0.7418 0.6633 0.0989
vn 0.7418 0.6633 0.0989
vn -0.7510 0.6490 -0.1217
vn 0.7510 0.6490 -0.1217
vn 0.0000 -0.8660 -0.5001
vn 0.5907 -0.8069 0.0001
vn 0.0000 -1.0000 0.0001
vn 0.5907 -0.6988 -0.4036
vn 0.0000 -0.4998 -0.8661
vn 0.5907 -0.4033 -0.6988
vn 0.5907 0.0000 -0.8069
vn 0.0000 0.4998 -0.8661
vn 0.5907 0.4033 -0.6988
vn 0.0000 0.8660 -0.5001
vn 0.5907 0.6988 -0.4036
vn 0.0000 1.0000 0.0001
vn 0.5907 0.8069 0.0001
vn 0.0000 0.8659 0.5002
vn 0.5907 0.6987 0.4036
vn 0.0000 0.4998 0.8661
vn 0.5907 0.4033 0.6989
vn 0.5907 -0.0000 0.8069
vn 0.0000 -0.4998 0.8661
vn 0.5907 -0.4033 0.6989
vn 0.0000 -0.8659 0.5002
vn 0.5907 -0.6987 0.4036
vn 0.5907 -0.8069 -0.0000
vn 0.5907 -0.6988 -0.4035
vn 0.5907 -0.4035 -0.6988
vn 0.5907 0.4036 -0.6987
vn 0.5907 0.6989 -0.4033
vn 0.5907 0.8069 0.0000
vn 0.5907 0.6989 0.4033
vn 0.5907 0.4036 0.6987
vn 0.5907 -0.4035 0.6988
vn 0.5907 -0.6988 0.4035
vn 0.0000 -0.8659 -0.5002
vn 0.5907 -0.6987 -0.4036
vn 0.0000 0.8659 -0.5002
vn 0.5907 0.6987 -0.4036
vn 0.0000 0.8660 0.5000
vn 0.5907 0.6988 0.4035
vn 0.0000 0.5000 0.8660
vn 0.5907 0.4035 0.6988
vn -0.5907 -0.8069 0.0001
vn -0.5907 -0.6987 0.4036
vn -0.5907 -0.4033 0.6989
vn -0.5907 0.4033 0.6989
vn -0.5907 0.6987 0.4036
vn -0.5907 0.8069 0.0001
vn -0.5907 0.6988 -0.4036
vn -0.5907 0.4033 -0.6988
vn -0.5907 -0.4033 -0.6988
vn -0.5907 -0.6988 -0.4036
vn -0.5907 0.4035 0.6988
vn -0.5907 0.6988 0.4035
vn -0.5907 0.6987 -0.4036
vn -0.5907 -0.6987 -0.4036
vn 0.6191 -0.5404 0.5698
vn 0.6700 -0.7311 0.1289
vn 0.6754 -0.7294 -0.1086
vn 0.6133 -0.5523 -0.5646
vn -0.6700 -0.7311 0.1289
vn -0.6191 -0.5404 0.5698
vn -0.6754 -0.7294 -0.1086
vn -0.6133 -0.5523 -0.5646
vn -0.5613 0.5233 -0.6412
vn 0.6696 -0.4530 0.5886
vn 0.6574 -0.1788 0.7320
vn -0.6574 -0.1786 0.7321
vn -0.6696 -0.4530 0.5886
vn -0.6326 -0.7196 -0.2863
vn 0.6700 -0.4427 -0.5959
vn 0.6326 -0.7196 -0.2863
vn -0.6700 -0.4427 -0.5959
vn 0.6342 -0.7211 0.2789
vn -0.6342 -0.7211 0.2789
vn 0.6588 -0.1731 -0.7321
vn -0.6588 -0.1732 -0.7321
vn -0.6465 0.6375 -0.4191
vn 0.6465 0.6375 -0.4191
vn 0.6858 0.4068 -0.6035
vn 0.6767 0.7289 -0.1038
vn -0.6767 0.7289 -0.1040
vn 0.6811 0.7269 0.0877
vn -0.6811 0.7269 0.0877
vn 0.6420 0.6505 0.4059
vn -0.6308 0.6272 0.4569
vn -0.7056 0.3669 0.6062
vn 0.8495 0.2558 0.4614
vn 0.3714 0.8006 0.4702
vn 0.3071 0.4605 0.8329
vn 0.8974 0.3823 0.2201
vn 0.8967 0.3831 -0.2216
vn 0.3723 0.8033 -0.4648
vn 0.3058 0.4785 -0.8231
vn -0.8495 0.2558 -0.4614
vn -0.3714 0.8006 -0.4702
vn -0.3071 0.4605 -0.8329
vn -0.8974 0.3823 -0.2201
vn -0.8967 0.3831 0.2216
vn -0.3723 0.8033 0.4648
vn -0.3058 0.4785 0.8231
vn 0.6840 0.4161 0.5991
vn 0.6533 0.1934 0.7320
vn -0.6520 0.2008 0.7311
vn -0.6559 0.1851 -0.7318
vn 0.6559 0.1851 -0.7318
vn 0.0000 0.8655 0.5009
vn 0.0000 0.4982 0.8671
vn 0.0000 0.8614 -0.5080
vn 0.8417 0.2763 -0.4639
vn 0.0000 0.4839 0.8751
vn 0.0000 0.8614 0.5080
vn 0.0000 0.8655 -0.5009
vn 0.0000 0.4982 -0.8671
vn -0.6858 0.4067 -0.6036
vn -0.8417 0.2763 0.4639
vn 0.0000 0.4839 -0.8751
usemtl tank_mat.001
s off
f 19/1/1 20/2/1 21/3/1
f 22/4/1 20/2/1 19/1/1
f 23/5/2 16/6/2 24/7/2
f 17/8/2 16/6/2 23/5/2
f 25/9/2 24/7/2 26/10/2
f 23/5/2 24/7/2 25/9/2
f 22/4/1 13/11/1 20/2/1
f 14/12/1 13/11/1 22/4/1
f 19/13/3 25/14/3 26/15/3
f 21/16/3 25/14/3 19/13/3
s 1
f 29/17/3 30/18/4 31/19/5
f 32/20/6 30/18/4 29/17/3
f 33/21/7 32/20/6 29/17/3
f 34/22/8 32/20/6 33/21/7
f 35/23/9 34/22/8 33/21/7
f 36/24/10 34/22/8 35/23/9
f 37/25/11 36/24/10 35/23/9
f 38/26/12 36/24/10 37/25/11
f 39/27/13 38/26/12 37/25/11
f 40/28/14 38/26/12 39/27/13
f 41/29/15 40/28/14 39/27/13
f 42/30/16 40/28/14 41/29/15
f 43/31/17 42/30/16 41/29/15
f 44/32/18 42/30/16 43/31/17
f 45/33/19 44/32/18 43/31/17
f 46/34/20 44/32/18 45/33/19
f 47/35/21 46/34/20 45/33/19
f 48/36/22 46/34/20 47/35/21
f 49/37/23 48/36/22 47/35/21
f 50/38/24 48/36/22 49/37/23
f 51/39/25 50/38/24 49/37/23
f 52/40/26 50/38/24 51/39/25
f 31/19/5 52/40/26 51/39/25
f 30/18/4 52/40/26 31/19/5
f 53/41/27 54/42/28 55/43/29
f 56/44/30 54/42/28 53/41/27
f 57/45/31 56/44/30 53/41/27
f 58/46/32 56/44/30 57/45/31
f 70/47/33 68/48/34 69/49/35
f 71/50/36 70/47/33 69/49/35
f 72/51/37 70/47/33 71/50/36
f 73/52/38 72/51/37 71/50/36
f 74/53/39 72/51/37 73/52/38
f 75/54/40 74/53/39 73/52/38
f 76/55/41 74/53/39 75/54/40
f 55/43/29 76/55/41 75/54/40
f 54/42/28 76/55/41 55/43/29
f 77/56/42 78/57/43 79/58/44
f 80/59/45 78/57/43 77/56/42
f 81/60/46 80/59/45 77/56/42
f 82/61/47 80/59/45 81/60/46
f 83/62/23 82/61/47 81/60/46
f 84/63/48 82/61/47 83/62/23
f 85/64/49 84/63/48 83/62/23
f 86/65/50 84/63/48 85/64/49
f 87/66/51 86/65/50 85/64/49
f 88/67/52 86/65/50 87/66/51
f 89/68/53 88/67/52 87/66/51
f 90/69/54 88/67/52 89/68/53
f 91/70/55 90/69/54 89/68/53
f 92/71/56 90/69/54 91/70/55
f 93/72/57 92/71/56 91/70/55
f 94/73/58 92/71/56 93/72/57
f 95/74/11 94/73/58 93/72/57
f 96/75/59 94/73/58 95/74/11
f 97/76/60 96/75/59 95/74/11
f 98/77/61 96/75/59 97/76/60
f 99/78/62 98/77/61 97/76/60
f 100/79/63 98/77/61 99/78/62
f 79/58/44 100/79/63 99/78/62
f 78/57/43 100/79/63 79/58/44
f 101/80/5 102/81/64 103/82/3
f 104/83/65 102/81/64 101/80/5
f 105/84/25 104/83/65 101/80/5
f 106/85/66 104/83/65 105/84/25
f 107/86/23 106/85/66 105/84/25
f 108/87/48 106/85/66 107/86/23
f 109/88/21 108/87/48 107/86/23
f 110/89/67 108/87/48 109/88/21
f 111/90/19 110/89/67 109/88/21
f 112/91/68 110/89/67 111/90/19
f 113/92/17 112/91/68 111/90/19
f 114/93/69 112/91/68 113/92/17
f 115/94/15 114/93/69 113/92/17
f 116/95/70 114/93/69 115/94/15
f 117/96/13 116/95/70 115/94/15
f 118/97/71 116/95/70 117/96/13
f 119/98/11 118/97/71 117/96/13
f 120/99/59 118/97/71 119/98/11
f 121/100/9 120/99/59 119/98/11
f 122/101/72 120/99/59 121/100/9
f 123/102/7 122/101/72 121/100/9
f 124/103/73 122/101/72 123/102/7
f 103/82/3 124/103/73 123/102/7
f 102/81/64 124/103/73 103/82/3
f 125/104/74 126/105/64 127/106/3
f 128/107/75 126/105/64 125/104/74
f 129/108/46 128/107/75 125/104/74
f 130/109/47 128/107/75 129/108/46
f 131/110/23 130/109/47 129/108/46
f 132/111/48 130/109/47 131/110/23
f 133/112/49 132/111/48 131/110/23
f 134/113/50 132/111/48 133/112/49
f 135/114/76 134/113/50 133/112/49
f 136/115/77 134/113/50 135/114/76
f 137/116/17 136/115/77 135/114/76
f 138/117/69 136/115/77 137/116/17
f 139/118/78 138/117/69 137/116/17
f 140/119/79 138/117/69 139/118/78
f 141/120/80 140/119/79 139/118/78
f 142/121/81 140/119/79 141/120/80
f 143/122/11 142/121/81 141/120/80
f 144/123/59 142/121/81 143/122/11
f 145/124/9 144/123/59 143/122/11
f 146/125/72 144/123/59 145/124/9
f 147/126/7 146/125/72 145/124/9
f 148/127/73 146/125/72 147/126/7
f 127/106/3 148/127/73 147/126/7
f 126/105/64 148/127/73 127/106/3
f 149/128/44 150/129/82 151/130/42
f 152/131/83 150/129/82 149/128/44
f 153/132/62 152/131/83 149/128/44
f 154/133/84 152/131/83 153/132/62
f 155/134/60 154/133/84 153/132/62
f 156/135/10 154/133/84 155/134/60
f 157/136/11 156/135/10 155/134/60
f 158/137/85 156/135/10 157/136/11
f 159/138/57 158/137/85 157/136/11
f 160/139/86 158/137/85 159/138/57
f 161/140/55 160/139/86 159/138/57
f 162/141/87 160/139/86 161/140/55
f 163/142/53 162/141/87 161/140/55
f 164/143/88 162/141/87 163/142/53
f 165/144/51 164/143/88 163/142/53
f 166/145/89 164/143/88 165/144/51
f 167/146/49 166/145/89 165/144/51
f 168/147/22 166/145/89 167/146/49
f 169/148/23 168/147/22 167/146/49
f 170/149/90 168/147/22 169/148/23
f 171/150/46 170/149/90 169/148/23
f 172/151/91 170/149/90 171/150/46
f 151/130/42 172/151/91 171/150/46
f 150/129/82 172/151/91 151/130/42
f 173/152/3 174/153/4 175/154/74
f 176/155/6 174/153/4 173/152/3
f 177/156/7 176/155/6 173/152/3
f 178/157/8 176/155/6 177/156/7
f 179/158/9 178/157/8 177/156/7
f 180/159/10 178/157/8 179/158/9
f 181/160/11 180/159/10 179/158/9
f 182/161/92 180/159/10 181/160/11
f 183/162/80 182/161/92 181/160/11
f 184/163/93 182/161/92 183/162/80
f 185/164/78 184/163/93 183/162/80
f 186/165/16 184/163/93 185/164/78
f 187/166/17 186/165/16 185/164/78
f 188/167/94 186/165/16 187/166/17
f 189/168/76 188/167/94 187/166/17
f 190/169/89 188/167/94 189/168/76
f 191/170/49 190/169/89 189/168/76
f 192/171/22 190/169/89 191/170/49
f 193/172/23 192/171/22 191/170/49
f 194/173/90 192/171/22 193/172/23
f 195/174/46 194/173/90 193/172/23
f 196/175/95 194/173/90 195/174/46
f 175/154/74 196/175/95 195/174/46
f 174/153/4 196/175/95 175/154/74
f 60/176/96 56/44/30 58/46/32
f 54/42/28 56/44/30 60/176/96
f 62/177/97 54/42/28 60/176/96
f 76/55/41 54/42/28 62/177/97
f 64/178/98 76/55/41 62/177/97
f 74/53/39 76/55/41 64/178/98
f 66/179/99 74/53/39 64/178/98
f 72/51/37 74/53/39 66/179/99
f 70/47/33 72/51/37 66/179/99
f 203/180/29 202/181/100 201/182/101
f 204/183/40 202/181/100 203/180/29
f 199/184/28 204/183/40 203/180/29
f 198/185/41 204/183/40 199/184/28
f 204/183/40 207/186/102 202/181/100
f 208/187/38 207/186/102 204/183/40
f 198/185/41 208/187/38 204/183/40
f 205/188/39 208/187/38 198/185/41
f 208/187/38 211/189/103 207/186/102
f 212/190/36 211/189/103 208/187/38
f 205/188/39 212/190/36 208/187/38
f 209/191/37 212/190/36 205/188/39
f 216/192/35 215/193/104 211/189/103
f 213/194/33 215/193/104 216/192/35
f 209/191/37 213/194/33 216/192/35
f 219/195/27 218/196/32 217/197/30
f 220/198/31 218/196/32 219/195/27
f 201/182/101 220/198/31 219/195/27
f 20/199/105 13/200/106 17/201/107
f 23/202/108 20/199/105 17/201/107
f 235/203/2 170/149/90 172/151/91
f 168/147/22 170/149/90 235/203/2
f 166/145/89 168/147/22 235/203/2
f 236/204/2 52/40/26 30/18/4
f 50/38/24 52/40/26 236/204/2
f 48/36/22 50/38/24 236/204/2
f 237/205/2 186/165/16 188/167/94
f 184/163/93 186/165/16 237/205/2
f 182/161/92 184/163/93 237/205/2
f 238/206/1 116/95/70 118/97/71
f 114/93/69 116/95/70 238/206/1
f 112/91/68 114/93/69 238/206/1
f 239/207/1 146/125/72 148/127/73
f 144/123/59 146/125/72 239/207/1
f 142/121/81 144/123/59 239/207/1
f 239/207/1 140/119/79 142/121/81
f 138/117/69 140/119/79 239/207/1
f 136/115/77 138/117/69 239/207/1
f 239/207/1 134/113/50 136/115/77
f 132/111/48 134/113/50 239/207/1
f 130/109/47 132/111/48 239/207/1
f 239/207/1 128/107/75 130/109/47
f 126/105/64 128/107/75 239/207/1
f 148/127/73 126/105/64 239/207/1
f 238/206/1 110/89/67 112/91/68
f 108/87/48 110/89/67 238/206/1
f 106/85/66 108/87/48 238/206/1
f 240/208/1 78/57/43 80/59/45
f 100/79/63 78/57/43 240/208/1
f 98/77/61 100/79/63 240/208/1
f 240/208/1 96/75/59 98/77/61
f 94/73/58 96/75/59 240/208/1
f 92/71/56 94/73/58 240/208/1
f 240/208/1 90/69/54 92/71/56
f 88/67/52 90/69/54 240/208/1
f 86/65/50 88/67/52 240/208/1
f 240/208/1 84/63/48 86/65/50
f 82/61/47 84/63/48 240/208/1
f 80/59/45 82/61/47 240/208/1
f 216/192/35 212/190/36 209/191/37
f 211/189/103 212/190/36 216/192/35
f 219/195/27 203/180/29 201/182/101
f 217/197/30 203/180/29 219/195/27
f 150/129/82 235/203/2 172/151/91
f 152/131/83 235/203/2 150/129/82
f 154/133/84 235/203/2 152/131/83
f 156/135/10 235/203/2 154/133/84
f 158/137/85 235/203/2 156/135/10
f 160/139/86 235/203/2 158/137/85
f 162/141/87 235/203/2 160/139/86
f 164/143/88 235/203/2 162/141/87
f 32/20/6 236/204/2 30/18/4
f 34/22/8 236/204/2 32/20/6
f 36/24/10 236/204/2 34/22/8
f 38/26/12 236/204/2 36/24/10
f 40/28/14 236/204/2 38/26/12
f 42/30/16 236/204/2 40/28/14
f 44/32/18 236/204/2 42/30/16
f 46/34/20 236/204/2 44/32/18
f 194/173/90 237/205/2 192/171/22
f 196/175/95 237/205/2 194/173/90
f 174/153/4 237/205/2 196/175/95
f 176/155/6 237/205/2 174/153/4
f 178/157/8 237/205/2 176/155/6
f 180/159/10 237/205/2 178/157/8
f 26/15/109 22/209/110 19/13/111
f 24/210/112 22/209/110 26/15/109
f 21/16/113 23/202/108 25/14/114
f 20/199/105 23/202/108 21/16/113
f 24/210/112 14/211/115 22/209/110
f 16/212/116 14/211/115 24/210/112
f 190/169/89 237/205/2 188/167/94
f 192/171/22 237/205/2 190/169/89
f 120/99/59 238/206/1 118/97/71
f 122/101/72 238/206/1 120/99/59
f 124/103/73 238/206/1 122/101/72
f 102/81/64 238/206/1 124/103/73
f 104/83/65 238/206/1 102/81/64
f 106/85/66 238/206/1 104/83/65
f 68/48/34 70/47/33 66/179/99
f 217/197/30 199/184/28 203/180/29
f 166/145/89 235/203/2 164/143/88
f 48/36/22 236/204/2 46/34/20
f 182/161/92 237/205/2 180/159/10
usemtl Material.002
s off
f 1/213/2 2/214/2 3/215/2
f 4/216/2 2/214/2 1/213/2
f 5/217/2 4/216/2 1/213/2
f 6/218/2 4/216/2 5/217/2
f 7/219/1 8/220/1 9/221/1
f 10/222/1 8/220/1 7/219/1
f 11/223/1 10/222/1 7/219/1
f 12/224/1 10/222/1 11/223/1
f 9/221/1 13/200/1 14/211/1
f 15/225/1 13/200/1 9/221/1
f 8/220/1 15/225/1 9/221/1
f 3/215/2 16/212/2 17/201/2
f 18/226/2 16/212/2 3/215/2
f 2/214/2 18/226/2 3/215/2
f 12/224/1 27/227/1 10/222/1
f 6/218/2 28/228/2 4/216/2
s 1
f 4/216/117 11/223/118 7/219/119
f 12/224/120 11/223/118 4/216/117
f 28/228/121 12/224/120 4/216/117
f 27/227/122 12/224/120 28/228/121
f 6/218/123 27/227/122 28/228/121
f 10/222/124 27/227/122 6/218/123
f 5/217/125 10/222/124 6/218/123
f 1/213/126 10/222/124 5/217/125
f 221/229/127 222/230/128 223/231/129
f 224/232/130 222/230/128 221/229/127
f 225/233/131 224/232/130 221/229/127
f 226/234/132 224/232/130 225/233/131
f 227/235/133 226/234/132 225/233/131
f 228/236/134 229/237/135 230/238/136
f 231/239/137 229/237/135 228/236/134
f 232/240/138 231/239/137 228/236/134
f 233/241/139 231/239/137 232/240/138
f 234/242/140 233/241/139 232/240/138
f 1/213/126 8/220/141 10/222/124
f 15/225/142 8/220/141 1/213/126
f 3/215/143 15/225/142 1/213/126
f 17/201/107 15/225/142 3/215/143
f 18/226/144 14/211/115 16/212/116
f 9/221/145 14/211/115 18/226/144
f 7/219/119 9/221/145 18/226/144
f 17/201/107 13/200/106 15/225/142
f 241/243/146 234/244/140 242/245/147
f 233/246/139 234/244/140 241/243/146
f 233/247/139 243/248/148 229/249/135
f 241/250/146 243/248/148 233/247/139
f 225/233/131 244/251/149 227/235/133
f 221/229/127 244/251/149 225/233/131
f 245/252/150 222/253/128 246/254/151
f 223/255/129 222/253/128 245/252/150
f 247/256/152 227/257/133 248/258/153
f 226/259/132 227/257/133 247/256/152
f 226/260/132 246/261/151 222/262/128
f 247/263/152 246/261/151 226/260/132
f 2/214/154 7/219/119 18/226/144
f 4/216/117 7/219/119 2/214/154
f 232/240/138 249/264/155 234/242/140
f 228/236/134 249/264/155 232/240/138
f 250/265/156 229/266/135 243/267/148
f 230/268/136 229/266/135 250/265/156
f 226/234/132 222/230/128 224/232/130
f 233/241/139 229/237/135 231/239/137
usemtl TankTreads
f 59/269/101 58/46/32 57/45/31
f 60/176/96 58/46/32 59/269/101
f 61/270/100 60/176/96 59/269/101
f 62/177/97 60/176/96 61/270/100
f 63/271/102 62/177/97 61/270/100
f 64/178/98 62/177/97 63/271/102
f 65/272/103 64/178/98 63/271/102
f 66/179/99 64/178/98 65/272/103
f 67/273/104 66/179/99 65/272/103
f 68/48/34 66/179/99 67/273/104
f 69/49/35 68/48/34 67/273/104
f 65/272/103 69/49/35 67/273/104
f 71/50/36 69/49/35 65/272/103
f 63/271/102 71/50/36 65/272/103
f 73/52/38 71/50/36 63/271/102
f 61/270/100 73/52/38 63/271/102
f 75/54/40 73/52/38 61/270/100
f 59/269/101 75/54/40 61/270/100
f 55/43/29 75/54/40 59/269/101
f 53/41/27 55/43/29 59/269/101
f 197/274/96 198/185/41 199/184/28
f 200/275/97 198/185/41 197/274/96
f 201/182/101 200/275/97 197/274/96
f 202/181/100 200/275/97 201/182/101
f 200/275/97 205/188/39 198/185/41
f 206/276/98 205/188/39 200/275/97
f 202/181/100 206/276/98 200/275/97
f 207/186/102 206/276/98 202/181/100
f 206/276/98 209/191/37 205/188/39
f 210/277/99 209/191/37 206/276/98
f 207/186/102 210/277/99 206/276/98
f 211/189/103 210/277/99 207/186/102
f 210/277/99 213/194/33 209/191/37
f 214/278/34 213/194/33 210/277/99
f 211/189/103 214/278/34 210/277/99
f 215/193/104 214/278/34 211/189/103
f 217/197/30 197/274/96 199/184/28
f 218/196/32 197/274/96 217/197/30
f 197/274/96 220/198/31 201/182/101
f 57/45/31 53/41/27 59/269/101
f 197/274/96 218/196/32 220/198/31
f 213/194/33 214/278/34 215/193/104
