# Blender v3.2.1 OBJ File: ''
# www.blender.org
mtllib Bullet.mtl
o Zylinder
v 0.016432 -0.000000 0.013632
v 0.008216 -0.014230 -0.013632
v 0.016432 0.000000 -0.013632
v 0.008216 -0.014230 0.013632
v -0.008216 -0.014230 -0.013632
v -0.008216 -0.014230 0.013632
v -0.016432 0.000000 -0.013632
v -0.016432 -0.000000 0.013632
v -0.008216 0.014230 -0.013632
v -0.007252 0.012562 0.013632
v 0.007252 0.012562 0.014204
v 0.007252 0.012562 0.013632
v -0.008216 0.014230 0.013632
v 0.008216 0.014230 -0.013632
v 0.008216 0.014230 0.013632
v 0.013442 0.000000 -0.013632
v 0.006722 0.011642 -0.015410
v 0.006722 0.011642 -0.013632
v 0.007252 -0.012562 0.013632
v 0.014504 -0.000000 0.013632
v -0.014504 -0.000000 0.013632
v -0.007252 -0.012562 0.013632
v 0.006722 -0.011642 -0.013632
v -0.006722 -0.011642 -0.013632
v -0.013442 0.000000 -0.013632
v -0.006722 0.011642 -0.013632
v -0.008126 0.014074 -0.015410
v -0.006722 0.011642 -0.015410
v -0.013442 0.000000 -0.015410
v 0.006722 -0.011642 -0.015410
v -0.006722 -0.011642 -0.015410
v 0.013442 0.000000 -0.015410
v 0.016252 0.000000 -0.015410
v 0.008126 0.014074 -0.018074
v 0.008126 0.014074 -0.015410
v -0.016252 0.000000 -0.015410
v -0.008126 -0.014074 -0.015410
v 0.008126 -0.014074 -0.015410
v 0.008126 -0.014074 -0.018074
v -0.016252 0.000000 -0.018074
v -0.008126 0.014074 -0.018074
v -0.008126 -0.014074 -0.018074
v 0.016252 0.000000 -0.018074
v -0.014504 -0.000000 0.014204
v -0.007990 0.013838 0.014652
v -0.007252 0.012562 0.014204
v 0.007252 -0.012562 0.014204
v 0.014504 -0.000000 0.014204
v -0.007252 -0.012562 0.014204
v -0.015980 -0.000000 0.014652
v -0.007990 0.013838 0.022812
v -0.007990 -0.013838 0.014652
v 0.007990 0.013838 0.014652
v 0.007990 -0.013838 0.014652
v 0.015980 -0.000000 0.014652
v -0.007990 -0.013838 0.022812
v -0.015980 -0.000000 0.022812
v 0.007990 0.013838 0.022812
v 0.015980 -0.000000 0.022812
v -0.000404 -0.000000 0.045526
v -0.000202 -0.000350 0.045526
v 0.000404 -0.000000 0.045526
v 0.007990 -0.013838 0.022812
v -0.007990 -0.013838 0.024210
v 0.007990 0.013838 0.024210
v 0.015980 -0.000000 0.024210
v 0.007990 -0.013838 0.024210
v -0.007990 0.013838 0.024210
v -0.015980 -0.000000 0.024210
v 0.013892 -0.000000 0.034868
v 0.006946 -0.012032 0.034868
v 0.004096 -0.007094 0.042670
v 0.008192 -0.000000 0.042670
v 0.000202 -0.000350 0.045526
v -0.006946 -0.012032 0.034868
v -0.004096 -0.007094 0.042670
v -0.013892 -0.000000 0.034868
v -0.008192 -0.000000 0.042670
v -0.006946 0.012032 0.034868
v -0.004096 0.007094 0.042670
v -0.000202 0.000350 0.045526
v 0.006946 0.012032 0.034868
v 0.004096 0.007094 0.042670
v 0.000202 0.000350 0.045526
vt 1.000000 1.000000
vt 0.833333 0.500000
vt 1.000000 0.500000
vt 0.833333 1.000000
vt 0.666667 0.500000
vt 0.666667 1.000000
vt 0.500000 0.500000
vt 0.500000 1.000000
vt 0.333333 0.500000
vt 0.333333 1.000000
vt 0.166667 0.500000
vt 0.166667 1.000000
vt -0.000000 0.500000
vt 0.750000 0.446347
vt 0.579958 0.348173
vt 0.579958 0.348173
vt 0.920042 0.348174
vt 0.750000 0.053653
vt 0.579958 0.151827
vt 0.750000 0.053653
vt 0.920042 0.151826
vt 0.920042 0.348174
vt 0.579958 0.151827
vt 0.920042 0.151826
vt 0.750000 0.446347
vt -0.000000 1.000000
vt 0.066525 0.144071
vt 0.066525 0.355929
vt 0.066525 0.355929
vt 0.750000 0.446347
vt 0.579958 0.348173
vt 0.579958 0.348173
vt 0.433475 0.355929
vt 0.250000 0.490000
vt 0.250000 0.461859
vt 0.457846 0.130000
vt 0.457846 0.370000
vt 0.250000 0.038141
vt 0.433475 0.144071
vt 0.250000 0.010000
vt 0.042154 0.130000
vt 0.042154 0.370000
vt 0.957846 0.370000
vt 0.920042 0.348174
vt 0.957846 0.130000
vt 0.920042 0.151826
vt 0.750000 0.010000
vt 0.750000 0.053653
vt 0.542154 0.130000
vt 0.579958 0.151827
vt 0.542154 0.370000
vt 0.750000 0.490000
vt 0.579958 0.151827
vt 0.750000 0.053653
vt 0.920042 0.348174
vt 0.920042 0.151826
vt 0.750000 0.446347
vt 0.250000 0.038141
vt 0.433475 0.355929
vt 0.250000 0.461859
vt 0.066525 0.144071
vt 0.433475 0.144071
vt 0.066525 0.144071
vt 0.433475 0.144071
vt 0.066525 0.355929
vt 0.250000 0.038141
vt 0.433475 0.355929
vt 0.250000 0.461859
vt 0.250000 0.244634
vt 0.254647 0.247317
vt 0.250000 0.255366
vt 0.254647 0.252683
vt 0.245353 0.252683
vt 0.245353 0.247317
vt 0.066525 0.144071
vt 0.433475 0.144071
vt 0.250000 0.038141
vt 0.066525 0.355929
vt 0.250000 0.461859
vt 0.433475 0.355929
vt 0.433475 0.144071
vt 0.066525 0.355929
vt 0.250000 0.461859
vt 0.433475 0.355929
vt 0.066525 0.144071
vt 0.250000 0.038141
vt 0.250000 0.454943
vt 0.427486 0.352471
vt 0.344061 0.304306
vt 0.250000 0.358612
vt 0.427486 0.147529
vt 0.344061 0.195694
vt 0.250000 0.045057
vt 0.250000 0.141388
vt 0.072514 0.147529
vt 0.155939 0.195694
vt 0.072514 0.352471
vt 0.155939 0.304306
vn 0.8660 -0.5000 -0.0000
vn 0.0000 -1.0000 -0.0000
vn -0.8660 -0.5000 -0.0000
vn -0.8660 0.5000 0.0000
vn 0.0000 1.0000 0.0000
vn 0.8660 0.5000 0.0000
vn 0.0000 0.0000 -1.0000
vn 0.8661 0.4999 0.0000
vn 0.0000 -0.0000 1.0000
vn -0.8661 0.4999 0.0000
vn -0.8661 -0.4999 -0.0000
vn 0.8661 -0.4999 -0.0000
vn -0.2873 0.1659 -0.9434
vn -0.2874 0.1660 -0.9433
vn -0.2874 0.1659 -0.9433
vn 0.0000 -0.3317 -0.9434
vn 0.0000 -0.3313 -0.9435
vn -0.0000 0.3317 -0.9434
vn 0.0000 0.3313 -0.9435
vn -0.2873 -0.1659 -0.9433
vn -0.2873 -0.1659 -0.9434
vn 0.2873 -0.1659 -0.9434
vn 0.2874 -0.1660 -0.9433
vn 0.2874 -0.1659 -0.9433
vn 0.2873 0.1659 -0.9434
vn 0.2874 0.1660 -0.9433
vn -0.0000 -0.3316 -0.9434
vn 0.0000 0.3316 -0.9434
vn -0.2874 -0.1659 -0.9433
vn 0.2874 0.1659 -0.9433
vn 0.8538 -0.4930 0.1672
vn 0.8539 -0.4929 0.1672
vn 0.7318 -0.4225 0.5347
vn 0.3377 -0.1950 0.9208
vn 0.3377 -0.1949 0.9208
vn 0.0000 -0.9859 0.1671
vn 0.0000 -0.8450 0.5348
vn 0.0000 -0.3900 0.9208
vn -0.8538 -0.4930 0.1672
vn -0.8538 -0.4930 0.1673
vn -0.7318 -0.4225 0.5347
vn -0.7319 -0.4225 0.5347
vn -0.3377 -0.1950 0.9208
vn -0.8538 0.4930 0.1672
vn -0.7318 0.4225 0.5347
vn -0.3377 0.1950 0.9208
vn -0.3377 0.1949 0.9208
vn 0.0000 0.9859 0.1671
vn 0.0000 0.8450 0.5348
vn 0.0000 0.3900 0.9208
vn 0.8538 0.4930 0.1672
vn 0.8538 0.4930 0.1673
vn 0.7318 0.4225 0.5347
vn 0.7319 0.4225 0.5347
vn 0.3377 0.1950 0.9208
vn 0.8538 -0.4930 0.1673
vn 0.7318 -0.4226 0.5347
vn 0.3377 -0.1949 0.9209
vn -0.8539 -0.4929 0.1672
vn -0.3378 -0.1949 0.9208
vn -0.8538 0.4929 0.1673
vn -0.7319 0.4225 0.5347
vn -0.3377 0.1949 0.9209
vn 0.8539 0.4929 0.1672
vn 0.3378 0.1949 0.9208
usemtl Casing
s 1
f 1/1/1 2/2/1 3/3/1
f 4/4/2 5/5/2 2/2/2
f 6/6/3 7/7/3 5/5/3
f 8/8/4 9/9/4 7/7/4
f 13/10/5 14/11/5 9/9/5
f 15/12/6 3/13/6 14/11/6
f 33/14/6 34/15/6 35/16/6
f 39/17/7 40/18/7 34/15/7
f 27/19/4 40/18/4 36/20/4
f 37/21/2 39/17/2 38/22/2
f 35/16/5 41/23/5 27/19/5
f 36/20/3 42/24/3 37/21/3
f 38/22/1 43/25/1 33/14/1
f 1/1/1 4/4/1 2/2/1
f 4/4/2 6/6/2 5/5/2
f 6/6/3 8/8/3 7/7/3
f 8/8/4 13/10/4 9/9/4
f 13/10/5 15/12/5 14/11/5
f 15/12/6 1/26/6 3/13/6
f 33/14/6 43/25/6 34/15/6
f 34/15/7 43/25/7 39/17/7
f 39/17/7 42/24/7 40/18/7
f 40/18/7 41/23/7 34/15/7
f 27/19/4 41/23/4 40/18/4
f 37/21/2 42/24/2 39/17/2
f 35/16/5 34/15/5 41/23/5
f 36/20/3 40/18/3 42/24/3
f 38/22/1 39/17/1 43/25/1
usemtl Gold
f 10/27/5 11/28/5 12/29/5
f 16/30/8 17/31/8 18/32/8
f 19/33/9 1/34/9 20/35/9
f 19/33/9 6/36/9 4/37/9
f 21/38/9 6/36/9 22/39/9
f 10/27/9 8/40/9 21/38/9
f 12/29/9 13/41/9 10/27/9
f 12/29/9 1/34/9 15/42/9
f 16/30/7 2/43/7 23/44/7
f 23/44/7 5/45/7 24/46/7
f 24/46/7 7/47/7 25/48/7
f 25/48/7 9/49/7 26/50/7
f 18/32/7 9/49/7 14/51/7
f 18/32/7 3/52/7 16/30/7
f 17/31/9 27/19/9 28/53/9
f 26/50/10 29/54/10 25/48/10
f 24/46/2 30/55/2 23/44/2
f 18/32/5 28/53/5 26/50/5
f 25/48/11 31/56/11 24/46/11
f 23/44/12 32/57/12 16/30/12
f 31/56/9 36/20/9 37/21/9
f 32/57/9 38/22/9 33/14/9
f 32/57/9 35/16/9 17/31/9
f 28/53/9 36/20/9 29/54/9
f 31/56/9 38/22/9 30/55/9
f 22/39/3 44/58/3 21/38/3
f 20/35/1 47/59/1 19/33/1
f 12/29/6 48/60/6 20/35/6
f 21/38/4 46/61/4 10/27/4
f 19/33/2 49/62/2 22/39/2
f 10/27/5 46/61/5 11/28/5
f 16/30/8 32/57/8 17/31/8
f 19/33/9 4/37/9 1/34/9
f 19/33/9 22/39/9 6/36/9
f 21/38/9 8/40/9 6/36/9
f 10/27/9 13/41/9 8/40/9
f 12/29/9 15/42/9 13/41/9
f 12/29/9 20/35/9 1/34/9
f 16/30/7 3/52/7 2/43/7
f 23/44/7 2/43/7 5/45/7
f 24/46/7 5/45/7 7/47/7
f 25/48/7 7/47/7 9/49/7
f 18/32/7 26/50/7 9/49/7
f 18/32/7 14/51/7 3/52/7
f 17/31/9 35/16/9 27/19/9
f 26/50/10 28/53/10 29/54/10
f 24/46/2 31/56/2 30/55/2
f 18/32/5 17/31/5 28/53/5
f 25/48/11 29/54/11 31/56/11
f 23/44/12 30/55/12 32/57/12
f 31/56/9 29/54/9 36/20/9
f 32/57/9 30/55/9 38/22/9
f 32/57/9 33/14/9 35/16/9
f 28/53/9 27/19/9 36/20/9
f 31/56/9 37/21/9 38/22/9
f 22/39/3 49/62/3 44/58/3
f 20/35/1 48/60/1 47/59/1
f 12/29/6 11/28/6 48/60/6
f 21/38/4 44/58/4 46/61/4
f 19/33/2 47/59/2 49/62/2
usemtl Red_Metal
f 44/58/13 45/63/14 46/61/15
f 47/59/16 52/64/16 49/62/17
f 46/61/18 53/65/18 11/28/19
f 49/62/20 50/66/20 44/58/21
f 48/60/22 54/67/23 47/59/24
f 48/60/25 53/65/26 55/68/25
f 60/69/9 61/70/9 62/71/9
f 44/58/13 50/66/13 45/63/14
f 47/59/16 54/67/27 52/64/16
f 46/61/18 45/63/28 53/65/18
f 49/62/20 52/64/29 50/66/20
f 48/60/22 55/68/22 54/67/23
f 48/60/25 11/28/30 53/65/26
f 61/70/9 74/72/9 62/71/9
f 62/71/9 84/73/9 81/74/9
f 81/74/9 60/69/9 62/71/9
usemtl Bullet_Cap
f 50/66/4 51/75/4 45/63/4
f 54/67/2 56/76/2 52/64/2
f 52/64/3 57/77/3 50/66/3
f 45/63/5 58/78/5 53/65/5
f 53/65/6 59/79/6 55/68/6
f 63/80/2 64/81/2 56/76/2
f 51/75/5 65/82/5 58/78/5
f 63/80/1 66/83/1 67/84/1
f 57/77/4 68/85/4 51/75/4
f 59/79/6 65/82/6 66/83/6
f 56/76/3 69/86/3 57/77/3
f 55/68/1 63/80/1 54/67/1
f 67/84/31 70/87/31 71/88/32
f 70/87/33 72/89/33 71/88/33
f 73/90/34 74/72/35 72/89/34
f 67/84/36 75/91/36 64/81/36
f 71/88/37 76/92/37 75/91/37
f 76/92/38 74/72/38 61/70/38
f 64/81/39 77/93/39 69/86/40
f 75/91/41 78/94/41 77/93/42
f 76/92/43 60/69/43 78/94/43
f 69/86/44 79/95/44 68/85/44
f 79/95/45 78/94/45 80/96/45
f 78/94/46 81/74/47 80/96/46
f 68/85/48 82/97/48 65/82/48
f 79/95/49 83/98/49 82/97/49
f 80/96/50 84/73/50 83/98/50
f 65/82/51 70/87/51 66/83/52
f 82/97/53 73/90/53 70/87/54
f 83/98/55 62/71/55 73/90/55
f 50/66/4 57/77/4 51/75/4
f 54/67/2 63/80/2 56/76/2
f 52/64/3 56/76/3 57/77/3
f 45/63/5 51/75/5 58/78/5
f 53/65/6 58/78/6 59/79/6
f 63/80/2 67/84/2 64/81/2
f 51/75/5 68/85/5 65/82/5
f 63/80/1 59/79/1 66/83/1
f 57/77/4 69/86/4 68/85/4
f 59/79/6 58/78/6 65/82/6
f 56/76/3 64/81/3 69/86/3
f 55/68/1 59/79/1 63/80/1
f 67/84/31 66/83/56 70/87/31
f 70/87/33 73/90/57 72/89/33
f 73/90/34 62/71/58 74/72/35
f 67/84/36 71/88/36 75/91/36
f 71/88/37 72/89/37 76/92/37
f 76/92/38 72/89/38 74/72/38
f 64/81/39 75/91/59 77/93/39
f 75/91/41 76/92/41 78/94/41
f 76/92/43 61/70/60 60/69/43
f 69/86/44 77/93/61 79/95/44
f 79/95/45 77/93/62 78/94/45
f 78/94/46 60/69/63 81/74/47
f 68/85/48 79/95/48 82/97/48
f 79/95/49 80/96/49 83/98/49
f 80/96/50 81/74/50 84/73/50
f 65/82/51 82/97/64 70/87/51
f 82/97/53 83/98/53 73/90/53
f 83/98/55 84/73/65 62/71/55
