# Blender v3.2.1 OBJ File: ''
# www.blender.org
mtllib Cannon.mtl
o polygon1.002_polygon1.003
v 0.056299 0.076406 -0.049990
v 0.052822 0.125508 -0.046475
v 0.050068 0.076406 -0.056221
v 0.046553 0.125508 -0.052744
v -0.046406 0.125508 -0.052744
v -0.042559 0.134287 -0.049678
v -0.052676 0.125508 -0.046475
v -0.049600 0.134287 -0.042637
v -0.049600 0.134287 0.042637
v -0.040996 0.142295 0.033799
v -0.042559 0.134287 0.049678
v -0.033730 0.142295 0.041064
v 0.033877 0.142295 0.041064
v 0.041143 0.142295 0.033799
v -0.040996 0.142295 -0.033799
v 0.041143 0.142295 -0.033799
v 0.033877 0.142295 -0.041064
v 0.042705 0.134287 -0.049678
v -0.033730 0.142295 -0.041064
v -0.009053 0.125801 0.195664
v -0.013701 0.133857 0.196914
v 0.009199 0.125801 0.195664
v 0.013848 0.133857 0.196914
v 0.018320 0.110000 0.195664
v 0.027627 0.110000 0.196914
v 0.009199 0.094199 0.195664
v 0.013848 0.086133 0.196914
v -0.009053 0.094199 0.195664
v -0.013701 0.086133 0.196914
v -0.018174 0.110000 0.195664
v -0.027480 0.110000 0.196914
v 0.013311 0.132930 0.155996
v -0.013164 0.132930 0.155996
v -0.026406 0.110000 0.155996
v -0.013164 0.087061 0.155996
v 0.013311 0.087061 0.155996
v 0.026553 0.110000 0.155996
v 0.014424 0.110000 0.040977
v 0.017607 0.110000 0.162900
v 0.007246 0.122422 0.040977
v 0.008838 0.125185 0.162900
v -0.007100 0.122422 0.040977
v -0.008691 0.125185 0.162900
v -0.014277 0.110000 0.040977
v -0.017461 0.110000 0.162900
v -0.007100 0.097568 0.040977
v -0.008691 0.094814 0.162900
v 0.007246 0.097568 0.040977
v 0.008838 0.094814 0.162900
v 0.049746 0.134287 -0.042637
v 0.049746 0.134287 0.042637
v 0.052822 0.125508 0.046475
v 0.042705 0.134287 0.049678
v -0.052676 0.125508 0.046475
v -0.046406 0.125508 0.052744
v -0.049922 0.076406 0.054971
v 0.046553 0.125508 0.052744
v 0.050068 0.076406 0.056221
v 0.056299 0.076406 0.051250
v -0.056152 0.076406 -0.049990
v -0.056152 0.076406 0.049990
v 0.000068 0.110000 0.101016
v -0.049922 0.076406 -0.056221
vt 0.187500 0.843750
vt 0.187500 0.843750
vt 0.187500 0.843750
vt 0.187500 0.843750
vt 0.187500 0.843750
vt 0.187500 0.843750
vt 0.187500 0.843750
vt 0.187500 0.843750
vt 0.187500 0.843750
vt 0.187500 0.843750
vt 0.187500 0.843750
vt 0.187500 0.843750
vt 0.187500 0.843750
vt 0.187500 0.843750
vt 0.187500 0.843750
vt 0.187500 0.843750
vt 0.187500 0.843750
vt 0.187500 0.843750
vt 0.187500 0.843750
vt 0.250000 0.656250
vt 0.250000 0.656250
vt 0.250000 0.656250
vt 0.250000 0.656250
vt 0.250000 0.656250
vt 0.250000 0.656250
vt 0.250000 0.656250
vt 0.250000 0.656250
vt 0.250000 0.656250
vt 0.250000 0.656250
vt 0.250000 0.656250
vt 0.250000 0.656250
vt 0.250000 0.656250
vt 0.250000 0.656250
vt 0.250000 0.656250
vt 0.250000 0.656250
vt 0.250000 0.656250
vt 0.250000 0.656250
vt 0.125000 0.093750
vt 0.125000 0.093750
vt 0.125000 0.093750
vt 0.125000 0.093750
vt 0.125000 0.093750
vt 0.125000 0.093750
vt 0.125000 0.093750
vt 0.125000 0.093750
vt 0.125000 0.093750
vt 0.125000 0.093750
vt 0.125000 0.093750
vt 0.125000 0.093750
vt 0.187500 0.843750
vt 0.187500 0.843750
vt 0.187500 0.843750
vt 0.187500 0.843750
vt 0.187500 0.843750
vt 0.187500 0.843750
vt 0.187500 0.843750
vt 0.187500 0.843750
vt 0.187500 0.843750
vt 0.187500 0.843750
vt 0.125000 0.093750
vt 0.125000 0.093750
vt 0.125000 0.093750
vt 0.187500 0.843750
vt 0.187500 0.843750
vt 0.437500 0.843750
vt 0.437500 0.843750
vt 0.437500 0.843750
vt 0.437500 0.843750
vt 0.437500 0.843750
vt 0.437500 0.843750
vt 0.437500 0.843750
vt 0.125000 0.093750
vt 0.125000 0.093750
vt 0.125000 0.093750
vt 0.187500 0.843750
vn 0.3894 0.0928 -0.9164
vn 0.8847 0.2646 -0.3838
vn 0.9164 0.0928 -0.3894
vn 0.3839 0.2645 -0.8847
vn -0.3839 0.2645 -0.8847
vn -0.2816 0.6177 -0.7343
vn -0.8847 0.2646 -0.3838
vn -0.7340 0.6179 -0.2817
vn -0.7340 0.6179 0.2817
vn -0.3687 0.9236 0.1049
vn -0.2816 0.6177 0.7343
vn -0.1050 0.9237 0.3684
vn 0.1050 0.9237 0.3684
vn 0.3687 0.9236 0.1049
vn -0.3687 0.9236 -0.1049
vn 0.3687 0.9236 -0.1049
vn 0.1050 0.9237 -0.3684
vn 0.2816 0.6177 -0.7343
vn -0.1050 0.9237 -0.3684
vn -0.2774 -0.4803 0.8321
vn -0.3845 0.6661 0.6391
vn 0.2773 -0.4803 0.8321
vn 0.3845 0.6661 0.6391
vn -0.5546 -0.0000 0.8321
vn 0.7692 0.0001 0.6391
vn -0.2773 0.4802 0.8321
vn 0.3846 -0.6661 0.6391
vn 0.2774 0.4803 0.8321
vn -0.3846 -0.6661 0.6391
vn 0.5547 0.0000 0.8321
vn -0.7692 0.0001 0.6391
vn -0.3061 0.5303 -0.7907
vn 0.3061 0.5303 -0.7907
vn -0.6123 0.0001 -0.7906
vn -0.3062 -0.5303 -0.7905
vn 0.3063 -0.5303 -0.7905
vn 0.6123 0.0001 -0.7906
vn 0.4997 0.8658 -0.0261
vn 0.1370 -0.0001 -0.9906
vn 0.9997 0.0002 -0.0261
vn 0.0685 0.1186 -0.9906
vn -0.4997 0.8658 -0.0261
vn -0.0685 0.1186 -0.9906
vn -0.9997 0.0002 -0.0261
vn -0.1370 -0.0000 -0.9906
vn -0.4998 -0.8657 -0.0261
vn -0.0685 -0.1190 -0.9905
vn 0.4998 -0.8657 -0.0261
vn 0.0685 -0.1189 -0.9905
vn 0.7340 0.6179 -0.2817
vn 0.7340 0.6179 0.2817
vn 0.8848 0.2691 0.3804
vn 0.2816 0.6177 0.7343
vn -0.8844 0.2606 0.3871
vn -0.3841 0.2529 0.8880
vn -0.3474 0.0807 0.9342
vn 0.3785 0.2666 0.8864
vn 0.3319 0.0902 0.9390
vn 0.8930 0.0958 0.4398
vn -0.9164 0.0928 -0.3894
vn -0.8933 0.0947 0.4394
vn 0.0000 -0.0000 1.0000
vn 0.0000 -0.6655 -0.7464
vn 0.5762 -0.3328 -0.7465
vn 0.5762 0.3327 -0.7465
vn 0.5761 0.3326 -0.7467
vn 0.0000 0.6650 -0.7468
vn -0.3894 0.0928 -0.9164
usemtl TankMat
s 1
f 3/1/1 2/2/2 1/3/3
f 4/4/4 2/2/2 3/1/1
f 5/5/5 4/4/4 3/1/1
f 6/6/6 4/4/4 5/5/5
f 7/7/7 6/6/6 5/5/5
f 8/8/8 6/6/6 7/7/7
f 9/9/9 8/8/8 7/7/7
f 10/10/10 8/8/8 9/9/9
f 11/11/11 10/10/10 9/9/9
f 12/12/12 10/10/10 11/11/11
f 13/13/13 12/12/12 11/11/11
f 10/10/10 12/12/12 13/13/13
f 14/14/14 10/10/10 13/13/13
f 15/15/15 10/10/10 14/14/14
f 16/16/16 15/15/15 14/14/14
f 17/17/17 15/15/15 16/16/16
f 18/18/18 17/17/17 16/16/16
f 19/19/19 17/17/17 18/18/18
f 6/6/6 19/19/19 18/18/18
f 8/8/8 19/19/19 6/6/6
usemtl Cannon
f 22/20/20 21/21/21 20/22/22
f 23/23/23 21/21/21 22/20/20
f 24/24/24 23/23/23 22/20/20
f 25/25/25 23/23/23 24/24/24
f 26/26/26 25/25/25 24/24/24
f 27/27/27 25/25/25 26/26/26
f 28/28/28 27/27/27 26/26/26
f 29/29/29 27/27/27 28/28/28
f 30/30/30 29/29/29 28/28/28
f 31/31/31 29/29/29 30/30/30
f 20/22/22 31/31/31 30/30/30
f 21/21/21 31/31/31 20/22/22
f 33/32/32 23/23/23 32/33/33
f 21/21/21 23/23/23 33/32/32
f 34/34/34 21/21/21 33/32/32
f 31/31/31 21/21/21 34/34/34
f 35/35/35 31/31/31 34/34/34
f 29/29/29 31/31/31 35/35/35
f 36/36/36 29/29/29 35/35/35
f 27/27/27 29/29/29 36/36/36
f 37/37/37 27/27/27 36/36/36
f 25/25/25 27/27/27 37/37/37
f 32/33/33 25/25/25 37/37/37
f 23/23/23 25/25/25 32/33/33
usemtl Barrel
f 40/38/38 39/39/39 38/40/40
f 41/41/41 39/39/39 40/38/38
f 42/42/42 41/41/41 40/38/38
f 43/43/43 41/41/41 42/42/42
f 44/44/44 43/43/43 42/42/42
f 45/45/45 43/43/43 44/44/44
f 46/46/46 45/45/45 44/44/44
f 47/47/47 45/45/45 46/46/46
f 48/48/48 47/47/47 46/46/46
f 49/49/49 47/47/47 48/48/48
f 38/40/40 49/49/49 48/48/48
f 39/39/39 49/49/49 38/40/40
usemtl TankMat
f 18/18/18 4/4/4 6/6/6
f 50/50/50 4/4/4 18/18/18
f 16/16/16 50/50/50 18/18/18
f 51/51/51 50/50/50 16/16/16
f 14/14/14 51/51/51 16/16/16
f 13/13/13 51/51/51 14/14/14
f 50/50/50 2/2/2 4/4/4
f 52/52/52 2/2/2 50/50/50
f 51/51/51 52/52/52 50/50/50
f 53/53/53 52/52/52 51/51/51
f 13/13/13 53/53/53 51/51/51
f 11/11/11 53/53/53 13/13/13
f 54/54/54 9/9/9 7/7/7
f 55/55/55 9/9/9 54/54/54
f 56/56/56 55/55/55 54/54/54
f 57/57/57 55/55/55 56/56/56
f 58/58/58 57/57/57 56/56/56
f 59/59/59 57/57/57 58/58/58
usemtl Cannon
f 39/39/39 36/60/36 49/49/49
f 37/61/37 36/60/36 39/39/39
f 41/41/41 37/61/37 39/39/39
f 32/62/33 37/61/37 41/41/41
usemtl TankMat
f 60/63/60 7/7/7 5/5/5
f 54/54/54 7/7/7 60/63/60
f 61/64/61 54/54/54 60/63/60
f 56/56/56 54/54/54 61/64/61
usemtl BarrelInside
f 62/65/62 20/66/22 30/67/30
f 22/68/20 20/66/22 62/65/62
f 24/69/24 22/68/20 62/65/62
usemtl TankMat
f 55/55/55 11/11/11 9/9/9
f 53/53/53 11/11/11 55/55/55
f 57/57/57 53/53/53 55/55/55
usemtl BarrelInside
f 62/65/62 26/70/26 24/69/24
f 28/71/28 26/70/26 62/65/62
f 30/67/30 28/71/28 62/65/62
usemtl TankMat
f 2/2/2 59/59/59 1/3/3
f 52/52/52 59/59/59 2/2/2
usemtl Cannon
s off
f 43/43/63 32/62/63 41/41/63
f 33/72/63 32/62/63 43/43/63
f 45/45/64 33/72/64 43/43/64
f 34/73/64 33/72/64 45/45/64
f 47/47/65 34/73/65 45/45/65
f 35/74/66 34/73/66 47/47/66
usemtl TankMat
s 1
f 19/19/19 15/15/15 17/17/17
f 8/8/8 15/15/15 19/19/19
usemtl Cannon
s off
f 49/49/67 35/74/67 47/47/67
f 36/60/67 35/74/67 49/49/67
usemtl TankMat
s 1
f 52/52/52 57/57/57 59/59/59
f 53/53/53 57/57/57 52/52/52
f 63/75/68 5/5/5 3/1/1
f 60/63/60 5/5/5 63/75/68
f 10/10/10 15/15/15 8/8/8
