# Blender v3.2.1 OBJ File: ''
# www.blender.org
mtllib Crystal.mtl
o Icosphere.014_Icosphere.002
v -0.121441 0.035608 -0.017314
v 0.055292 0.036051 0.126959
v -0.188946 0.036051 0.216125
v 0.055292 0.036053 -0.161586
v -0.339894 0.036051 -0.017314
v -0.188946 0.036053 -0.250752
v 0.168575 1.379691 -0.065830
v -0.022853 1.434480 0.287659
v -0.304679 1.440653 0.200480
v -0.345577 1.400972 -0.183908
v -0.103814 1.413678 -0.215730
v -0.072590 1.821581 0.014075
vt 0.181819 0.000000
vt 0.272728 0.157461
vt 0.090910 0.157461
vt 0.363637 0.000000
vt 0.454546 0.157461
vt 0.909091 0.000000
vt 1.000000 0.157461
vt 0.818182 0.157461
vt 0.727273 0.000000
vt 0.636364 0.157461
vt 0.545455 0.000000
vt 0.363637 0.314921
vt 0.181819 0.314921
vt 0.909091 0.314921
vt 0.727273 0.314921
vt 0.545455 0.314921
vt 0.000000 0.314921
vt 0.272728 0.472382
vt 0.090910 0.472382
vt 0.818182 0.472382
vt 0.636364 0.472382
vt 0.454546 0.472382
vn 0.0000 -1.0000 -0.0000
vn 0.0016 -1.0000 0.0011
vn -0.0006 -1.0000 0.0017
vn 0.0016 -1.0000 -0.0012
vn -0.0020 -1.0000 -0.0000
vn -0.0006 -1.0000 -0.0017
vn 0.9965 -0.0840 -0.0000
vn 0.3416 -0.0884 0.9357
vn -0.8381 -0.0630 0.5419
vn -0.8377 -0.0696 -0.5417
vn 0.3429 0.0027 -0.9394
vn 0.8790 -0.0057 0.4769
vn -0.2958 -0.0137 0.9552
vn -0.9944 0.0087 0.1049
vn -0.1321 0.0334 -0.9907
vn 0.4841 0.0215 -0.8748
vn 0.8353 0.3849 0.3927
vn -0.2379 0.5400 0.8073
vn -0.8457 0.5324 0.0350
vn -0.1389 0.4941 -0.8582
vn 0.4794 0.4026 -0.7798
usemtl .GWALD_Materialexp.003
s 1
f 1/1/1 2/2/2 3/3/3
f 2/2/2 1/4/1 4/5/4
f 1/6/1 3/7/3 5/8/5
f 1/9/1 5/8/5 6/10/6
f 1/11/1 6/10/6 4/5/4
f 2/2/7 4/5/7 7/12/7
f 3/3/8 2/2/8 8/13/8
f 5/8/9 3/7/9 9/14/9
f 6/10/10 5/8/10 10/15/10
f 4/5/11 6/10/11 11/16/11
f 2/2/12 7/12/12 8/13/12
f 3/3/13 8/13/13 9/17/13
f 5/8/14 9/14/14 10/15/14
f 6/10/15 10/15/15 11/16/15
f 4/5/16 11/16/16 7/12/16
f 8/13/17 7/12/17 12/18/17
f 9/17/18 8/13/18 12/19/18
f 10/15/19 9/14/19 12/20/19
f 11/16/20 10/15/20 12/21/20
f 7/12/21 11/16/21 12/22/21
o Icosphere.016_Icosphere.002
v -0.067934 0.055952 0.124893
v 0.021675 0.029670 0.146413
v -0.070277 0.007802 0.207714
v -0.010178 0.088063 0.055492
v -0.158959 0.052679 0.154679
v -0.121814 0.102285 0.060600
v 0.245119 0.840178 0.479111
v 0.180805 0.744823 0.730241
v -0.034058 0.770740 0.750674
v -0.138334 0.879070 0.541604
v 0.027613 0.903586 0.473124
v 0.121433 1.012016 0.698321
vt 0.181819 0.000000
vt 0.272728 0.157461
vt 0.090910 0.157461
vt 0.363637 0.000000
vt 0.454546 0.157461
vt 0.909091 0.000000
vt 1.000000 0.157461
vt 0.818182 0.157461
vt 0.727273 0.000000
vt 0.636364 0.157461
vt 0.545455 0.000000
vt 0.363637 0.314921
vt 0.181819 0.314921
vt 0.909091 0.314921
vt 0.727273 0.314921
vt 0.545455 0.314921
vt 0.000000 0.314921
vt 0.272728 0.472382
vt 0.090910 0.472382
vt 0.818182 0.472382
vt 0.636364 0.472382
vt 0.454546 0.472382
vn -0.1318 -0.8544 -0.5026
vn -0.1302 -0.8549 -0.5022
vn -0.1319 -0.8553 -0.5010
vn -0.1308 -0.8538 -0.5039
vn -0.1335 -0.8545 -0.5020
vn -0.1329 -0.8536 -0.5038
vn 0.9186 -0.0959 -0.3834
vn 0.5371 -0.6019 0.5909
vn -0.6142 -0.4380 0.6564
vn -0.9441 0.1589 -0.2890
vn 0.0172 0.4551 -0.8903
vn 0.9425 -0.3105 0.1235
vn 0.0075 -0.5800 0.8145
vn -0.9137 -0.1534 0.3763
vn -0.3945 0.4777 -0.7850
vn 0.1539 0.4447 -0.8823
vn 0.9139 0.2420 0.3259
vn 0.1107 0.1421 0.9836
vn -0.6203 0.5260 0.5819
vn -0.2681 0.9069 -0.3250
vn 0.2545 0.8256 -0.5036
usemtl .GWALD_Materialexp.003
s 1
f 13/23/22 14/24/23 15/25/24
f 14/24/23 13/26/22 16/27/25
f 13/28/22 15/29/24 17/30/26
f 13/31/22 17/30/26 18/32/27
f 13/33/22 18/32/27 16/27/25
f 14/24/28 16/27/28 19/34/28
f 15/25/29 14/24/29 20/35/29
f 17/30/30 15/29/30 21/36/30
f 18/32/31 17/30/31 22/37/31
f 16/27/32 18/32/32 23/38/32
f 14/24/33 19/34/33 20/35/33
f 15/25/34 20/35/34 21/39/34
f 17/30/35 21/36/35 22/37/35
f 18/32/36 22/37/36 23/38/36
f 16/27/37 23/38/37 19/34/37
f 20/35/38 19/34/38 24/40/38
f 21/39/39 20/35/39 24/41/39
f 22/37/40 21/36/40 24/42/40
f 23/38/41 22/37/41 24/43/41
f 19/34/42 23/38/42 24/44/42
o Icosphere.017_Icosphere.002
v -0.270492 0.000889 0.009923
v -0.140562 -0.038771 0.194207
v -0.404887 -0.085256 0.174034
v -0.055904 0.063052 -0.040101
v -0.483594 -0.012162 -0.072745
v -0.267906 0.079497 -0.205087
v -0.237425 0.891698 0.328435
v -0.437088 0.833491 0.608854
v -0.709188 0.834371 0.479230
v -0.609413 0.901661 0.181265
v -0.419952 0.927526 0.270107
v -0.586214 1.055493 0.406535
vt 0.181819 0.000000
vt 0.272728 0.157461
vt 0.090910 0.157461
vt 0.363637 0.000000
vt 0.454546 0.157461
vt 0.909091 0.000000
vt 1.000000 0.157461
vt 0.818182 0.157461
vt 0.727273 0.000000
vt 0.636364 0.157461
vt 0.545455 0.000000
vt 0.363637 0.314921
vt 0.181819 0.314921
vt 0.909091 0.314921
vt 0.727273 0.314921
vt 0.545455 0.314921
vt 0.000000 0.314921
vt 0.272728 0.472382
vt 0.090910 0.472382
vt 0.818182 0.472382
vt 0.636364 0.472382
vt 0.454546 0.472382
vn 0.1879 -0.9238 -0.3336
vn 0.1890 -0.9241 -0.3321
vn 0.1869 -0.9245 -0.3323
vn 0.1896 -0.9233 -0.3340
vn 0.1862 -0.9239 -0.3342
vn 0.1879 -0.9232 -0.3353
vn 0.9330 0.0456 0.3569
vn 0.0062 -0.4276 0.9039
vn -0.9134 -0.3632 0.1837
vn -0.5623 0.1487 -0.8135
vn 0.5620 0.4787 -0.6745
vn 0.8145 0.0011 0.5802
vn -0.3944 -0.4044 0.8252
vn -0.9448 -0.0397 -0.3253
vn 0.3084 0.5065 -0.8052
vn 0.3506 0.4436 -0.8248
vn 0.4586 0.7469 0.4815
vn -0.3779 0.4720 0.7965
vn -0.8828 0.4253 -0.1995
vn 0.1560 0.8082 -0.5679
vn 0.3039 0.8511 -0.4281
usemtl .GWALD_Materialexp.003
s 1
f 25/45/43 26/46/44 27/47/45
f 26/46/44 25/48/43 28/49/46
f 25/50/43 27/51/45 29/52/47
f 25/53/43 29/52/47 30/54/48
f 25/55/43 30/54/48 28/49/46
f 26/46/49 28/49/49 31/56/49
f 27/47/50 26/46/50 32/57/50
f 29/52/51 27/51/51 33/58/51
f 30/54/52 29/52/52 34/59/52
f 28/49/53 30/54/53 35/60/53
f 26/46/54 31/56/54 32/57/54
f 27/47/55 32/57/55 33/61/55
f 29/52/56 33/58/56 34/59/56
f 30/54/57 34/59/57 35/60/57
f 28/49/58 35/60/58 31/56/58
f 32/57/59 31/56/59 36/62/59
f 33/61/60 32/57/60 36/63/60
f 34/59/61 33/58/61 36/64/61
f 35/60/62 34/59/62 36/65/62
f 31/56/63 35/60/63 36/66/63
o Icosphere.018_Icosphere.002
v -0.065702 0.036871 -0.016772
v -0.196136 0.025269 0.095790
v -0.164429 0.177387 -0.034830
v -0.047353 -0.110610 0.071153
v 0.003953 0.135521 -0.140200
v 0.076309 -0.042471 -0.074697
v 0.294748 0.247510 0.562424
v 0.171508 0.479097 0.585211
v 0.281415 0.597369 0.425181
v 0.436418 0.422337 0.361274
v 0.375715 0.342469 0.484673
v 0.418268 0.516485 0.544150
vt 0.181819 0.000000
vt 0.272728 0.157461
vt 0.090910 0.157461
vt 0.363637 0.000000
vt 0.454546 0.157461
vt 0.909091 0.000000
vt 1.000000 0.157461
vt 0.818182 0.157461
vt 0.727273 0.000000
vt 0.636364 0.157461
vt 0.545455 0.000000
vt 0.363637 0.314921
vt 0.181819 0.314921
vt 0.909091 0.314921
vt 0.727273 0.314921
vt 0.545455 0.314921
vt 0.000000 0.314921
vt 0.272728 0.472382
vt 0.090910 0.472382
vt 0.818182 0.472382
vt 0.636364 0.472382
vt 0.454546 0.472382
vn -0.5485 -0.4760 -0.6874
vn -0.5499 -0.4761 -0.6863
vn -0.5496 -0.4745 -0.6876
vn -0.5483 -0.4775 -0.6865
vn -0.5478 -0.4749 -0.6887
vn -0.5470 -0.4768 -0.6880
vn -0.4101 -0.5771 0.7063
vn -0.8697 0.4132 0.2701
vn -0.1610 0.8016 -0.5758
vn 0.7405 0.0545 -0.6698
vn 0.6304 -0.7547 0.1819
vn -0.5488 -0.3660 0.7516
vn -0.7057 0.7074 0.0381
vn 0.3985 0.6047 -0.6896
vn 0.7926 -0.6097 -0.0047
vn 0.7462 -0.6648 -0.0350
vn 0.1655 -0.0090 0.9862
vn -0.0262 0.8124 0.5825
vn 0.6613 0.6916 -0.2904
vn 0.9171 -0.3099 0.2506
vn 0.8293 -0.3513 0.4345
usemtl .GWALD_Materialexp.003
s 1
f 37/67/64 38/68/65 39/69/66
f 38/68/65 37/70/64 40/71/67
f 37/72/64 39/73/66 41/74/68
f 37/75/64 41/74/68 42/76/69
f 37/77/64 42/76/69 40/71/67
f 38/68/70 40/71/70 43/78/70
f 39/69/71 38/68/71 44/79/71
f 41/74/72 39/73/72 45/80/72
f 42/76/73 41/74/73 46/81/73
f 40/71/74 42/76/74 47/82/74
f 38/68/75 43/78/75 44/79/75
f 39/69/76 44/79/76 45/83/76
f 41/74/77 45/80/77 46/81/77
f 42/76/78 46/81/78 47/82/78
f 40/71/79 47/82/79 43/78/79
f 44/79/80 43/78/80 48/84/80
f 45/83/81 44/79/81 48/85/81
f 46/81/82 45/80/82 48/86/82
f 47/82/83 46/81/83 48/87/83
f 43/78/84 47/82/84 48/88/84
o Icosphere.019_Icosphere.002
v -0.083888 0.036871 0.032242
v -0.250904 0.025270 -0.010055
v -0.125713 0.177387 -0.058992
v -0.145392 -0.110610 0.097698
v 0.057172 0.135521 0.018518
v 0.045010 -0.042471 0.115358
v -0.308922 0.313684 0.598793
v -0.338806 0.497238 0.570843
v -0.243313 0.563236 0.566685
v -0.079165 0.395297 0.632205
v -0.234221 0.332833 0.694012
v -0.263193 0.581365 0.891478
vt 0.181819 0.000000
vt 0.272728 0.157461
vt 0.090910 0.157461
vt 0.363637 0.000000
vt 0.454546 0.157461
vt 0.909091 0.000000
vt 1.000000 0.157461
vt 0.818182 0.157461
vt 0.727273 0.000000
vt 0.636364 0.157461
vt 0.545455 0.000000
vt 0.363637 0.314921
vt 0.181819 0.314921
vt 0.909091 0.314921
vt 0.727273 0.314921
vt 0.545455 0.314921
vt 0.000000 0.314921
vt 0.272728 0.472382
vt 0.090910 0.472382
vt 0.818182 0.472382
vt 0.636364 0.472382
vt 0.454546 0.472382
vn 0.2486 -0.4760 -0.8436
vn 0.2468 -0.4761 -0.8440
vn 0.2481 -0.4745 -0.8446
vn 0.2479 -0.4775 -0.8429
vn 0.2501 -0.4749 -0.8437
vn 0.2499 -0.4768 -0.8427
vn -0.8383 -0.5193 0.1661
vn -0.7455 0.4576 -0.4846
vn 0.3722 0.8196 -0.4355
vn 0.9789 0.0418 0.1998
vn 0.2186 -0.7672 0.6031
vn -0.9865 -0.1631 -0.0167
vn -0.5007 0.6916 -0.5206
vn 0.7330 0.6694 -0.1205
vn 0.4929 -0.6019 0.6283
vn -0.4369 -0.7517 0.4939
vn -0.9593 -0.1171 0.2569
vn -0.5691 0.8183 -0.0805
vn 0.7142 0.6999 0.0046
vn 0.4876 -0.5076 0.7104
vn -0.6086 -0.5359 0.5852
usemtl .GWALD_Materialexp.003
s 1
f 49/89/85 50/90/86 51/91/87
f 50/90/86 49/92/85 52/93/88
f 49/94/85 51/95/87 53/96/89
f 49/97/85 53/96/89 54/98/90
f 49/99/85 54/98/90 52/93/88
f 50/90/91 52/93/91 55/100/91
f 51/91/92 50/90/92 56/101/92
f 53/96/93 51/95/93 57/102/93
f 54/98/94 53/96/94 58/103/94
f 52/93/95 54/98/95 59/104/95
f 50/90/96 55/100/96 56/101/96
f 51/91/97 56/101/97 57/105/97
f 53/96/98 57/102/98 58/103/98
f 54/98/99 58/103/99 59/104/99
f 52/93/100 59/104/100 55/100/100
f 56/101/101 55/100/101 60/106/101
f 57/105/102 56/101/102 60/107/102
f 58/103/103 57/102/103 60/108/103
f 59/104/104 58/103/104 60/109/104
f 55/100/105 59/104/105 60/110/105
o Icosphere.022_Icosphere.002
v -0.351953 0.020070 -0.180412
v -0.455533 0.027040 -0.136776
v -0.425809 0.016517 -0.265348
v -0.342107 0.028211 -0.068526
v -0.294007 0.011183 -0.276562
v -0.242276 0.018412 -0.154916
v -0.414407 1.082508 -0.021654
v -0.562432 1.109043 -0.309305
v -0.377485 1.094555 -0.484924
v -0.104032 1.063559 -0.359049
v -0.191178 1.090675 -0.166686
v -0.349602 1.346852 -0.254423
vt 0.181819 0.000000
vt 0.272728 0.157461
vt 0.090910 0.157461
vt 0.363637 0.000000
vt 0.454546 0.157461
vt 0.909091 0.000000
vt 1.000000 0.157461
vt 0.818182 0.157461
vt 0.727273 0.000000
vt 0.636364 0.157461
vt 0.545455 0.000000
vt 0.363637 0.314921
vt 0.181819 0.314921
vt 0.909091 0.314921
vt 0.727273 0.314921
vt 0.545455 0.314921
vt 0.000000 0.314921
vt 0.272728 0.472382
vt 0.090910 0.472382
vt 0.818182 0.472382
vt 0.636364 0.472382
vt 0.454546 0.472382
vn -0.0341 -0.9967 0.0737
vn -0.0357 -0.9966 0.0744
vn -0.0352 -0.9968 0.0723
vn -0.0339 -0.9966 0.0755
vn -0.0331 -0.9968 0.0722
vn -0.0323 -0.9967 0.0741
vn -0.5136 -0.0732 0.8549
vn -0.9684 -0.1297 -0.2133
vn -0.0910 -0.1948 -0.9766
vn 0.9070 -0.1931 -0.3742
vn 0.6529 -0.0228 0.7571
vn -0.8896 -0.0151 0.4564
vn -0.6887 -0.1149 -0.7158
vn 0.4004 -0.1432 -0.9051
vn 0.9081 -0.0387 0.4169
vn 0.5448 0.0001 0.8386
vn -0.7218 0.5486 0.4220
vn -0.5223 0.6059 -0.6000
vn 0.3903 0.5971 -0.7008
vn 0.7747 0.5717 0.2704
vn 0.4499 0.5255 0.7221
usemtl .GWALD_Materialexp.003
s 1
f 61/111/106 62/112/107 63/113/108
f 62/112/107 61/114/106 64/115/109
f 61/116/106 63/117/108 65/118/110
f 61/119/106 65/118/110 66/120/111
f 61/121/106 66/120/111 64/115/109
f 62/112/112 64/115/112 67/122/112
f 63/113/113 62/112/113 68/123/113
f 65/118/114 63/117/114 69/124/114
f 66/120/115 65/118/115 70/125/115
f 64/115/116 66/120/116 71/126/116
f 62/112/117 67/122/117 68/123/117
f 63/113/118 68/123/118 69/127/118
f 65/118/119 69/124/119 70/125/119
f 66/120/120 70/125/120 71/126/120
f 64/115/121 71/126/121 67/122/121
f 68/123/122 67/122/122 72/128/122
f 69/127/123 68/123/123 72/129/123
f 70/125/124 69/124/124 72/130/124
f 71/126/125 70/125/125 72/131/125
f 67/122/126 71/126/126 72/132/126
o Icosphere.021_Icosphere.002
v -0.167046 0.017313 -0.158057
v -0.269099 -0.012931 -0.186890
v -0.160572 -0.038097 -0.253182
v -0.236622 0.054266 -0.080890
v -0.061021 0.013548 -0.188154
v -0.108025 0.070632 -0.081671
v -0.510850 0.919761 -0.579631
v -0.425443 0.810032 -0.865459
v -0.177452 0.839856 -0.879152
v -0.067089 0.964518 -0.633996
v -0.261024 0.992728 -0.562824
v -0.358632 1.117503 -0.826048
vt 0.181819 0.000000
vt 0.272728 0.157461
vt 0.090910 0.157461
vt 0.363637 0.000000
vt 0.454546 0.157461
vt 0.909091 0.000000
vt 1.000000 0.157461
vt 0.818182 0.157461
vt 0.727273 0.000000
vt 0.636364 0.157461
vt 0.545455 0.000000
vt 0.363637 0.314921
vt 0.181819 0.314921
vt 0.909091 0.314921
vt 0.727273 0.314921
vt 0.545455 0.314921
vt 0.000000 0.314921
vt 0.272728 0.472382
vt 0.090910 0.472382
vt 0.818182 0.472382
vt 0.636364 0.472382
vt 0.454546 0.472382
vn 0.1118 -0.8544 0.5074
vn 0.1101 -0.8549 0.5069
vn 0.1119 -0.8553 0.5058
vn 0.1107 -0.8538 0.5087
vn 0.1136 -0.8545 0.5069
vn 0.1128 -0.8536 0.5087
vn -0.9331 -0.0959 0.3467
vn -0.5133 -0.6019 -0.6118
vn 0.6398 -0.4380 -0.6316
vn 0.9319 0.1589 0.3262
vn -0.0525 0.4551 0.8889
vn -0.9369 -0.3105 -0.1607
vn 0.0248 -0.5800 -0.8142
vn 0.9279 -0.1534 -0.3397
vn 0.3631 0.4777 0.8000
vn -0.1888 0.4447 0.8755
vn -0.9003 0.2420 -0.3619
vn -0.0716 0.1421 -0.9873
vn 0.6428 0.5260 -0.5569
vn 0.2550 0.9069 0.3354
vn -0.2743 0.8256 0.4931
usemtl .GWALD_Materialexp.003
s 1
f 73/133/127 74/134/128 75/135/129
f 74/134/128 73/136/127 76/137/130
f 73/138/127 75/139/129 77/140/131
f 73/141/127 77/140/131 78/142/132
f 73/143/127 78/142/132 76/137/130
f 74/134/133 76/137/133 79/144/133
f 75/135/134 74/134/134 80/145/134
f 77/140/135 75/139/135 81/146/135
f 78/142/136 77/140/136 82/147/136
f 76/137/137 78/142/137 83/148/137
f 74/134/138 79/144/138 80/145/138
f 75/135/139 80/145/139 81/149/139
f 77/140/140 81/146/140 82/147/140
f 78/142/141 82/147/141 83/148/141
f 76/137/142 83/148/142 79/144/142
f 80/145/143 79/144/143 84/150/143
f 81/149/144 80/145/144 84/151/144
f 82/147/145 81/146/145 84/152/145
f 83/148/146 82/147/146 84/153/146
f 79/144/147 83/148/147 84/154/147
o Icosphere.023_Icosphere.002
v 0.023231 -0.065907 0.042122
v -0.042772 -0.103115 -0.022445
v 0.071272 -0.126453 -0.020947
v -0.065562 -0.028166 0.065131
v 0.118965 -0.065926 0.067556
v 0.034395 -0.005183 0.120755
v -0.047889 0.670664 -0.562165
v 0.147731 0.543945 -0.729380
v 0.290004 0.585266 -0.515324
v 0.320487 0.733342 -0.408561
v 0.081658 0.754407 -0.362755
v 0.182684 0.854082 -0.710203
vt 0.181819 0.000000
vt 0.272728 0.157461
vt 0.090910 0.157461
vt 0.363637 0.000000
vt 0.454546 0.157461
vt 0.909091 0.000000
vt 1.000000 0.157461
vt 0.818182 0.157461
vt 0.727273 0.000000
vt 0.636364 0.157461
vt 0.545455 0.000000
vt 0.363637 0.314921
vt 0.181819 0.314921
vt 0.909091 0.314921
vt 0.727273 0.314921
vt 0.545455 0.314921
vt 0.000000 0.314921
vt 0.272728 0.472382
vt 0.090910 0.472382
vt 0.818182 0.472382
vt 0.636364 0.472382
vt 0.454546 0.472382
vn -0.1657 -0.7701 0.6160
vn -0.1669 -0.7708 0.6148
vn -0.1648 -0.7712 0.6148
vn -0.1673 -0.7695 0.6164
vn -0.1639 -0.7701 0.6164
vn -0.1655 -0.7691 0.6174
vn -0.9809 -0.1156 -0.1564
vn -0.1367 -0.7121 -0.6886
vn 0.8897 -0.4112 -0.1983
vn 0.6428 0.2658 0.7184
vn -0.5078 0.4849 0.7121
vn -0.7312 -0.3935 -0.5572
vn 0.7571 -0.5134 -0.4041
vn 0.9737 -0.2251 0.0342
vn 0.2050 0.5165 0.8314
vn -0.8420 0.3720 0.3907
vn -0.6006 0.1166 -0.7910
vn 0.8366 -0.0606 -0.5444
vn 0.9189 0.0881 -0.3845
vn 0.1425 0.9397 0.3110
vn -0.5999 0.7982 0.0545
usemtl .GWALD_Materialexp.003
s 1
f 85/155/148 86/156/149 87/157/150
f 86/156/149 85/158/148 88/159/151
f 85/160/148 87/161/150 89/162/152
f 85/163/148 89/162/152 90/164/153
f 85/165/148 90/164/153 88/159/151
f 86/156/154 88/159/154 91/166/154
f 87/157/155 86/156/155 92/167/155
f 89/162/156 87/161/156 93/168/156
f 90/164/157 89/162/157 94/169/157
f 88/159/158 90/164/158 95/170/158
f 86/156/159 91/166/159 92/167/159
f 87/157/160 92/167/160 93/171/160
f 89/162/161 93/168/161 94/169/161
f 90/164/162 94/169/162 95/170/162
f 88/159/163 95/170/163 91/166/163
f 92/167/164 91/166/164 96/172/164
f 93/171/165 92/167/165 96/173/165
f 94/169/166 93/168/166 96/174/166
f 95/170/167 94/169/167 96/175/167
f 91/166/168 95/170/168 96/176/168
o Icosphere.024_Icosphere.002
v -0.353660 -0.008539 -0.057480
v -0.402795 -0.032977 0.021081
v -0.440347 -0.038754 -0.084973
v -0.297423 0.006794 0.018585
v -0.358185 -0.002552 -0.153018
v -0.269852 0.025597 -0.089015
v -0.625436 0.820016 0.222013
v -0.863581 0.779936 0.087940
v -0.820813 0.816857 -0.121973
v -0.575096 0.883992 -0.159861
v -0.549974 0.888349 0.019522
v -0.767646 1.036960 0.062041
vt 0.181819 0.000000
vt 0.272728 0.157461
vt 0.090910 0.157461
vt 0.363637 0.000000
vt 0.454546 0.157461
vt 0.909091 0.000000
vt 1.000000 0.157461
vt 0.818182 0.157461
vt 0.727273 0.000000
vt 0.636364 0.157461
vt 0.545455 0.000000
vt 0.363637 0.314921
vt 0.181819 0.314921
vt 0.909091 0.314921
vt 0.727273 0.314921
vt 0.545455 0.314921
vt 0.000000 0.314921
vt 0.272728 0.472382
vt 0.090910 0.472382
vt 0.818182 0.472382
vt 0.636364 0.472382
vt 0.454546 0.472382
vn 0.3506 -0.9336 -0.0733
vn 0.3497 -0.9341 -0.0718
vn 0.3490 -0.9342 -0.0738
vn 0.3517 -0.9333 -0.0719
vn 0.3506 -0.9335 -0.0751
vn 0.3522 -0.9330 -0.0739
vn 0.0998 -0.2034 0.9740
vn -0.8144 -0.4875 0.3149
vn -0.5389 -0.2741 -0.7965
vn 0.5545 0.1293 -0.8221
vn 0.9223 0.2639 0.2824
vn -0.4259 -0.3113 0.8495
vn -0.8806 -0.4024 -0.2502
vn -0.1410 -0.0421 -0.9891
vn 0.9366 0.3216 -0.1390
vn 0.8764 0.2506 0.4112
vn -0.5064 0.2715 0.8184
vn -0.9330 0.3350 -0.1312
vn -0.2867 0.6543 -0.6998
vn 0.5482 0.8307 -0.0970
vn 0.5626 0.6968 0.4448
usemtl .GWALD_Materialexp.003
s 1
f 97/177/169 98/178/170 99/179/171
f 98/178/170 97/180/169 100/181/172
f 97/182/169 99/183/171 101/184/173
f 97/185/169 101/184/173 102/186/174
f 97/187/169 102/186/174 100/181/172
f 98/178/175 100/181/175 103/188/175
f 99/179/176 98/178/176 104/189/176
f 101/184/177 99/183/177 105/190/177
f 102/186/178 101/184/178 106/191/178
f 100/181/179 102/186/179 107/192/179
f 98/178/180 103/188/180 104/189/180
f 99/179/181 104/189/181 105/193/181
f 101/184/182 105/190/182 106/191/182
f 102/186/183 106/191/183 107/192/183
f 100/181/184 107/192/184 103/188/184
f 104/189/185 103/188/185 108/194/185
f 105/193/186 104/189/186 108/195/186
f 106/191/187 105/190/187 108/196/187
f 107/192/188 106/191/188 108/197/188
f 103/188/189 107/192/189 108/198/189
