# Blender v3.2.1 OBJ File: ''
# www.blender.org
mtllib GoalFlag.mtl
o Cylinder_001_6_0.001
v 0.007770 -0.028916 -0.000000
v 0.007770 -0.028916 -0.027636
v 0.027312 -0.028916 -0.019542
v 0.007770 2.144456 0.000000
v 0.027312 2.144456 -0.019542
v 0.007770 2.144456 -0.027636
v 0.035406 -0.028916 -0.000000
v 0.035406 2.144456 0.000000
v 0.027312 -0.028916 0.019542
v 0.027312 2.144456 0.019542
v 0.007770 -0.028916 0.027636
v 0.007770 2.144456 0.027636
v -0.011772 -0.028916 0.019542
v -0.011772 2.144456 0.019542
v -0.019866 -0.028916 -0.000000
v -0.019866 2.144456 0.000000
v -0.011772 -0.028916 -0.019542
v -0.011772 2.144456 -0.019542
v 0.007770 -0.028916 -0.027636
v 0.007770 2.144456 -0.027636
v 0.027312 2.144456 -0.019542
v 0.027312 -0.028916 -0.019542
v 0.027312 -0.028916 -0.019542
v 0.027312 2.144456 -0.019542
v 0.035406 2.144456 0.000000
v 0.035406 -0.028916 -0.000000
v 0.035406 -0.028916 -0.000000
v 0.035406 2.144456 0.000000
v 0.027312 2.144456 0.019542
v 0.027312 -0.028916 0.019542
v 0.027312 -0.028916 0.019542
v 0.027312 2.144456 0.019542
v 0.007770 2.144456 0.027636
v 0.007770 -0.028916 0.027636
v 0.007770 -0.028916 0.027636
v 0.007770 2.144456 0.027636
v -0.011772 2.144456 0.019542
v -0.011772 -0.028916 0.019542
v -0.011772 -0.028916 0.019542
v -0.011772 2.144456 0.019542
v -0.019866 2.144456 0.000000
v -0.019866 -0.028916 -0.000000
v -0.019866 -0.028916 -0.000000
v -0.019866 2.144456 0.000000
v -0.011772 2.144456 -0.019542
v -0.011772 -0.028916 -0.019542
v -0.011772 -0.028916 -0.019542
v -0.011772 2.144456 -0.019542
v 0.007770 2.144456 -0.027636
v 0.007770 -0.028916 -0.027636
vt 0.750000 0.750000
vt 0.750000 0.510000
vt 0.919706 0.580294
vt 0.250000 0.750000
vt 0.419706 0.580294
vt 0.250000 0.510000
vt 0.990000 0.750000
vt 0.490000 0.750000
vt 0.919706 0.919706
vt 0.419706 0.919706
vt 0.750000 0.990000
vt 0.250000 0.990000
vt 0.580294 0.919706
vt 0.080294 0.919706
vt 0.510000 0.750000
vt 0.010000 0.750000
vt 0.580294 0.580294
vt 0.080294 0.580294
vt 1.000000 0.500000
vt 1.000000 0.000000
vt 0.875000 0.000000
vt 0.875000 0.500000
vt 0.875000 0.500000
vt 0.875000 0.000000
vt 0.750000 0.000000
vt 0.750000 0.500000
vt 0.750000 0.500000
vt 0.750000 0.000000
vt 0.625000 0.000000
vt 0.625000 0.500000
vt 0.625000 0.500000
vt 0.625000 0.000000
vt 0.500000 0.000000
vt 0.500000 0.500000
vt 0.500000 0.500000
vt 0.500000 0.000000
vt 0.375000 0.000000
vt 0.375000 0.500000
vt 0.375000 0.500000
vt 0.375000 0.000000
vt 0.250000 0.000000
vt 0.250000 0.500000
vt 0.250000 0.500000
vt 0.250000 0.000000
vt 0.125000 0.000000
vt 0.125000 0.500000
vt 0.125000 0.500000
vt 0.125000 0.000000
vt 0.000000 0.000000
vt 0.000000 0.500000
vn 0.0000 -1.0000 -0.0000
vn 0.0000 1.0000 0.0000
vn 0.3827 0.0000 -0.9239
vn 0.9239 0.0000 -0.3827
vn 0.9239 -0.0000 0.3827
vn 0.3827 -0.0000 0.9239
vn -0.3827 -0.0000 0.9239
vn -0.9239 -0.0000 0.3827
vn -0.9239 0.0000 -0.3827
vn -0.3827 0.0000 -0.9239
usemtl Cylinder_001.001
s off
f 1/1/1 2/2/1 3/3/1
f 4/4/2 5/5/2 6/6/2
f 1/1/1 3/3/1 7/7/1
f 4/4/2 8/8/2 5/5/2
f 1/1/1 7/7/1 9/9/1
f 4/4/2 10/10/2 8/8/2
f 1/1/1 9/9/1 11/11/1
f 4/4/2 12/12/2 10/10/2
f 1/1/1 11/11/1 13/13/1
f 4/4/2 14/14/2 12/12/2
f 1/1/1 13/13/1 15/15/1
f 4/4/2 16/16/2 14/14/2
f 1/1/1 15/15/1 17/17/1
f 4/4/2 18/18/2 16/16/2
f 1/1/1 17/17/1 2/2/1
f 4/4/2 6/6/2 18/18/2
f 19/19/3 20/20/3 21/21/3
f 19/19/3 21/21/3 22/22/3
f 23/23/4 24/24/4 25/25/4
f 23/23/4 25/25/4 26/26/4
f 27/27/5 28/28/5 29/29/5
f 27/27/5 29/29/5 30/30/5
f 31/31/6 32/32/6 33/33/6
f 31/31/6 33/33/6 34/34/6
f 35/35/7 36/36/7 37/37/7
f 35/35/7 37/37/7 38/38/7
f 39/39/8 40/40/8 41/41/8
f 39/39/8 41/41/8 42/42/8
f 43/43/9 44/44/9 45/45/9
f 43/43/9 45/45/9 46/46/9
f 47/47/10 48/48/10 49/49/10
f 47/47/10 49/49/10 50/50/10
o Plane.001
v 0.015581 1.640792 0.025238
v 0.012864 1.683579 0.028447
v 0.051423 1.640253 0.062517
v 0.280643 1.615559 0.393227
v 0.286020 1.656730 0.381695
v 0.315433 1.621670 0.431279
v 0.229634 1.620064 0.385468
v 0.234857 1.661652 0.375586
v 0.280643 1.615559 0.393227
v 0.179054 1.624856 0.375591
v 0.183551 1.667668 0.373461
v 0.229634 1.620064 0.385468
v 0.145208 1.626850 0.336346
v 0.144715 1.669871 0.339150
v 0.179054 1.624856 0.375591
v 0.141431 1.630261 0.284790
v 0.136270 1.672890 0.288099
v 0.145208 1.626850 0.336346
v 0.148427 1.635073 0.233809
v 0.143220 1.677721 0.237085
v 0.141431 1.630261 0.284790
v 0.146574 1.638757 0.182288
v 0.141969 1.681494 0.185526
v 0.148427 1.635073 0.233809
v 0.124811 1.639939 0.135372
v 0.122869 1.682960 0.137461
v 0.146574 1.638757 0.182288
v 0.088943 1.640045 0.098101
v 0.088347 1.683115 0.098951
v 0.124811 1.639939 0.135372
v 0.051423 1.640253 0.062517
v 0.049484 1.683239 0.064885
v 0.088943 1.640045 0.098101
v 0.280643 1.615559 0.393227
v 0.234857 1.661652 0.375586
v 0.286020 1.656730 0.381695
v 0.234857 1.661652 0.375586
v 0.239896 1.703423 0.366399
v 0.286020 1.656730 0.381695
v 0.229634 1.620064 0.385468
v 0.183551 1.667668 0.373461
v 0.234857 1.661652 0.375586
v 0.183551 1.667668 0.373461
v 0.188753 1.710278 0.369568
v 0.234857 1.661652 0.375586
v 0.234857 1.661652 0.375586
v 0.188753 1.710278 0.369568
v 0.239896 1.703423 0.366399
v 0.179054 1.624856 0.375591
v 0.144715 1.669871 0.339150
v 0.183551 1.667668 0.373461
v 0.144715 1.669871 0.339150
v 0.145319 1.712924 0.341393
v 0.183551 1.667668 0.373461
v 0.183551 1.667668 0.373461
v 0.145319 1.712924 0.341393
v 0.188753 1.710278 0.369568
v 0.145319 1.712924 0.341393
v 0.147104 1.755979 0.342835
v 0.188753 1.710278 0.369568
v 0.188753 1.710278 0.369568
v 0.147104 1.755979 0.342835
v 0.194131 1.752714 0.364379
v 0.147104 1.755979 0.342835
v 0.149951 1.798985 0.343327
v 0.194131 1.752714 0.364379
v 0.145208 1.626850 0.336346
v 0.136270 1.672890 0.288099
v 0.144715 1.669871 0.339150
v 0.136270 1.672890 0.288099
v 0.131381 1.715543 0.291530
v 0.144715 1.669871 0.339150
v 0.144715 1.669871 0.339150
v 0.131381 1.715543 0.291530
v 0.145319 1.712924 0.341393
v 0.131381 1.715543 0.291530
v 0.127252 1.758284 0.295005
v 0.145319 1.712924 0.341393
v 0.145319 1.712924 0.341393
v 0.127252 1.758284 0.295005
v 0.147104 1.755979 0.342835
v 0.127252 1.758284 0.295005
v 0.124217 1.801136 0.298385
v 0.147104 1.755979 0.342835
v 0.147104 1.755979 0.342835
v 0.124217 1.801136 0.298385
v 0.149951 1.798985 0.343327
v 0.124217 1.801136 0.298385
v 0.122519 1.844089 0.301498
v 0.149951 1.798985 0.343327
v 0.141431 1.630261 0.284790
v 0.143220 1.677721 0.237085
v 0.136270 1.672890 0.288099
v 0.143220 1.677721 0.237085
v 0.136915 1.720236 0.240308
v 0.136270 1.672890 0.288099
v 0.136270 1.672890 0.288099
v 0.136915 1.720236 0.240308
v 0.131381 1.715543 0.291530
v 0.136915 1.720236 0.240308
v 0.130161 1.762668 0.243529
v 0.131381 1.715543 0.291530
v 0.131381 1.715543 0.291530
v 0.130161 1.762668 0.243529
v 0.127252 1.758284 0.295005
v 0.130161 1.762668 0.243529
v 0.123472 1.805093 0.246796
v 0.127252 1.758284 0.295005
v 0.127252 1.758284 0.295005
v 0.123472 1.805093 0.246796
v 0.124217 1.801136 0.298385
v 0.123472 1.805093 0.246796
v 0.117378 1.847600 0.250135
v 0.124217 1.801136 0.298385
v 0.124217 1.801136 0.298385
v 0.117378 1.847600 0.250135
v 0.122519 1.844089 0.301498
v 0.117378 1.847600 0.250135
v 0.112587 1.890283 0.253531
v 0.122519 1.844089 0.301498
v 0.148427 1.635073 0.233809
v 0.141969 1.681494 0.185526
v 0.143220 1.677721 0.237085
v 0.141969 1.681494 0.185526
v 0.137020 1.724207 0.188778
v 0.143220 1.677721 0.237085
v 0.143220 1.677721 0.237085
v 0.137020 1.724207 0.188778
v 0.136915 1.720236 0.240308
v 0.137020 1.724207 0.188778
v 0.131613 1.766879 0.192049
v 0.136915 1.720236 0.240308
v 0.136915 1.720236 0.240308
v 0.131613 1.766879 0.192049
v 0.130161 1.762668 0.243529
v 0.131613 1.766879 0.192049
v 0.125644 1.809473 0.195359
v 0.130161 1.762668 0.243529
v 0.130161 1.762668 0.243529
v 0.125644 1.809473 0.195359
v 0.123472 1.805093 0.246796
v 0.125644 1.809473 0.195359
v 0.119229 1.851985 0.198688
v 0.123472 1.805093 0.246796
v 0.123472 1.805093 0.246796
v 0.119229 1.851985 0.198688
v 0.117378 1.847600 0.250135
v 0.119229 1.851985 0.198688
v 0.112597 1.894441 0.202032
v 0.117378 1.847600 0.250135
v 0.117378 1.847600 0.250135
v 0.112597 1.894441 0.202032
v 0.112587 1.890283 0.253531
v 0.112597 1.894441 0.202032
v 0.106132 1.936903 0.205408
v 0.112587 1.890283 0.253531
v 0.146574 1.638757 0.182288
v 0.122869 1.682960 0.137461
v 0.141969 1.681494 0.185526
v 0.122869 1.682960 0.137461
v 0.120242 1.725928 0.139900
v 0.141969 1.681494 0.185526
v 0.141969 1.681494 0.185526
v 0.120242 1.725928 0.139900
v 0.137020 1.724207 0.188778
v 0.120242 1.725928 0.139900
v 0.117090 1.768856 0.142497
v 0.137020 1.724207 0.188778
v 0.137020 1.724207 0.188778
v 0.117090 1.768856 0.142497
v 0.131613 1.766879 0.192049
v 0.117090 1.768856 0.142497
v 0.113407 1.811742 0.145233
v 0.131613 1.766879 0.192049
v 0.131613 1.766879 0.192049
v 0.113407 1.811742 0.145233
v 0.125644 1.809473 0.195359
v 0.113407 1.811742 0.145233
v 0.109114 1.854570 0.148124
v 0.125644 1.809473 0.195359
v 0.125644 1.809473 0.195359
v 0.109114 1.854570 0.148124
v 0.119229 1.851985 0.198688
v 0.109114 1.854570 0.148124
v 0.104137 1.897314 0.151187
v 0.119229 1.851985 0.198688
v 0.119229 1.851985 0.198688
v 0.104137 1.897314 0.151187
v 0.112597 1.894441 0.202032
v 0.104137 1.897314 0.151187
v 0.098424 1.939944 0.154436
v 0.112597 1.894441 0.202032
v 0.112597 1.894441 0.202032
v 0.098424 1.939944 0.154436
v 0.106132 1.936903 0.205408
v 0.098424 1.939944 0.154436
v 0.092092 1.982444 0.157850
v 0.106132 1.936903 0.205408
v 0.124811 1.639939 0.135372
v 0.088347 1.683115 0.098951
v 0.122869 1.682960 0.137461
v 0.088347 1.683115 0.098951
v 0.088194 1.726184 0.099336
v 0.122869 1.682960 0.137461
v 0.122869 1.682960 0.137461
v 0.088194 1.726184 0.099336
v 0.120242 1.725928 0.139900
v 0.088194 1.726184 0.099336
v 0.087718 1.769253 0.099984
v 0.120242 1.725928 0.139900
v 0.120242 1.725928 0.139900
v 0.087718 1.769253 0.099984
v 0.117090 1.768856 0.142497
v 0.087718 1.769253 0.099984
v 0.086665 1.812308 0.101047
v 0.117090 1.768856 0.142497
v 0.117090 1.768856 0.142497
v 0.086665 1.812308 0.101047
v 0.113407 1.811742 0.145233
v 0.086665 1.812308 0.101047
v 0.085038 1.855348 0.102460
v 0.113407 1.811742 0.145233
v 0.113407 1.811742 0.145233
v 0.085038 1.855348 0.102460
v 0.109114 1.854570 0.148124
v 0.085038 1.855348 0.102460
v 0.082783 1.898364 0.104214
v 0.109114 1.854570 0.148124
v 0.109114 1.854570 0.148124
v 0.082783 1.898364 0.104214
v 0.104137 1.897314 0.151187
v 0.082783 1.898364 0.104214
v 0.079759 1.941335 0.106347
v 0.104137 1.897314 0.151187
v 0.104137 1.897314 0.151187
v 0.079759 1.941335 0.106347
v 0.098424 1.939944 0.154436
v 0.079759 1.941335 0.106347
v 0.075872 1.984226 0.108876
v 0.098424 1.939944 0.154436
v 0.098424 1.939944 0.154436
v 0.075872 1.984226 0.108876
v 0.092092 1.982444 0.157850
v 0.075872 1.984226 0.108876
v 0.070536 2.026909 0.112040
v 0.092092 1.982444 0.157850
v 0.088943 1.640045 0.098101
v 0.049484 1.683239 0.064885
v 0.088347 1.683115 0.098951
v 0.049484 1.683239 0.064885
v 0.049632 1.726330 0.064937
v 0.088347 1.683115 0.098951
v 0.088347 1.683115 0.098951
v 0.049632 1.726330 0.064937
v 0.088194 1.726184 0.099336
v 0.049632 1.726330 0.064937
v 0.050600 1.769382 0.064048
v 0.088194 1.726184 0.099336
v 0.088194 1.726184 0.099336
v 0.050600 1.769382 0.064048
v 0.087718 1.769253 0.099984
v 0.050600 1.769382 0.064048
v 0.051485 1.812428 0.063227
v 0.087718 1.769253 0.099984
v 0.087718 1.769253 0.099984
v 0.051485 1.812428 0.063227
v 0.086665 1.812308 0.101047
v 0.051485 1.812428 0.063227
v 0.052023 1.855491 0.062756
v 0.086665 1.812308 0.101047
v 0.086665 1.812308 0.101047
v 0.052023 1.855491 0.062756
v 0.085038 1.855348 0.102460
v 0.052023 1.855491 0.062756
v 0.052218 1.898579 0.062615
v 0.085038 1.855348 0.102460
v 0.085038 1.855348 0.102460
v 0.052218 1.898579 0.062615
v 0.082783 1.898364 0.104214
v 0.052218 1.898579 0.062615
v 0.051915 1.941697 0.062898
v 0.082783 1.898364 0.104214
v 0.082783 1.898364 0.104214
v 0.051915 1.941697 0.062898
v 0.079759 1.941335 0.106347
v 0.051915 1.941697 0.062898
v 0.050808 1.984830 0.063774
v 0.079759 1.941335 0.106347
v 0.079759 1.941335 0.106347
v 0.050808 1.984830 0.063774
v 0.075872 1.984226 0.108876
v 0.050808 1.984830 0.063774
v 0.048456 2.027921 0.065421
v 0.075872 1.984226 0.108876
v 0.075872 1.984226 0.108876
v 0.048456 2.027921 0.065421
v 0.070536 2.026909 0.112040
v 0.048456 2.027921 0.065421
v 0.044143 2.070814 0.068124
v 0.070536 2.026909 0.112040
v 0.051423 1.640253 0.062517
v 0.012864 1.683579 0.028447
v 0.049484 1.683239 0.064885
v 0.012864 1.683579 0.028447
v 0.012578 1.726565 0.028973
v 0.049484 1.683239 0.064885
v 0.049484 1.683239 0.064885
v 0.012578 1.726565 0.028973
v 0.049632 1.726330 0.064937
v 0.012578 1.726565 0.028973
v 0.013576 1.769559 0.028055
v 0.049632 1.726330 0.064937
v 0.049632 1.726330 0.064937
v 0.013576 1.769559 0.028055
v 0.050600 1.769382 0.064048
v 0.013576 1.769559 0.028055
v 0.014857 1.812569 0.026824
v 0.050600 1.769382 0.064048
v 0.050600 1.769382 0.064048
v 0.014857 1.812569 0.026824
v 0.051485 1.812428 0.063227
v 0.014857 1.812569 0.026824
v 0.016181 1.855605 0.025576
v 0.051485 1.812428 0.063227
v 0.051485 1.812428 0.063227
v 0.016181 1.855605 0.025576
v 0.052023 1.855491 0.062756
v 0.016181 1.855605 0.025576
v 0.017551 1.898669 0.024335
v 0.052023 1.855491 0.062756
v 0.052023 1.855491 0.062756
v 0.017551 1.898669 0.024335
v 0.052218 1.898579 0.062615
v 0.017551 1.898669 0.024335
v 0.018872 1.941767 0.023214
v 0.052218 1.898579 0.062615
v 0.052218 1.898579 0.062615
v 0.018872 1.941767 0.023214
v 0.051915 1.941697 0.062898
v 0.018872 1.941767 0.023214
v 0.019760 1.984918 0.022528
v 0.051915 1.941697 0.062898
v 0.051915 1.941697 0.062898
v 0.019760 1.984918 0.022528
v 0.050808 1.984830 0.063774
v 0.019760 1.984918 0.022528
v 0.019707 2.028126 0.022589
v 0.050808 1.984830 0.063774
v 0.050808 1.984830 0.063774
v 0.019707 2.028126 0.022589
v 0.048456 2.027921 0.065421
v 0.019707 2.028126 0.022589
v 0.018359 2.071378 0.023524
v 0.048456 2.027921 0.065421
v 0.048456 2.027921 0.065421
v 0.018359 2.071378 0.023524
v 0.044143 2.070814 0.068124
v 0.018359 2.071378 0.023524
v 0.015581 2.114672 0.025238
v 0.044143 2.070814 0.068124
v 0.188753 1.710278 0.369568
v 0.194131 1.752714 0.364379
v 0.239896 1.703423 0.366399
vt 0.000000 1.000000
vt 0.000000 1.000000
vt 0.000000 1.000000
vt 0.000000 1.000000
vt 0.000000 1.000000
vt 0.000000 1.000000
vt 0.000000 1.000000
vt 0.000000 1.000000
vt 0.000000 1.000000
vt 0.000000 1.000000
vt 0.000000 1.000000
vt 0.000000 1.000000
vt 0.000000 1.000000
vt 0.000000 1.000000
vt 0.000000 1.000000
vt 0.000000 1.000000
vt 0.000000 1.000000
vt 0.000000 1.000000
vt 0.000000 1.000000
vt 0.000000 1.000000
vt 0.000000 1.000000
vt 0.000000 1.000000
vt 0.000000 1.000000
vt 0.000000 1.000000
vt 0.000000 1.000000
vt 0.000000 1.000000
vt 0.000000 1.000000
vt 0.000000 1.000000
vt 0.000000 1.000000
vt 0.000000 1.000000
vt 0.000000 1.000000
vt 0.000000 1.000000
vt 0.000000 1.000000
vt 0.000000 1.000000
vt 0.000000 1.000000
vt 0.000000 1.000000
vt 0.000000 1.000000
vt 0.000000 1.000000
vt 0.000000 1.000000
vt 0.000000 1.000000
vt 0.000000 1.000000
vt 0.000000 1.000000
vt 0.000000 1.000000
vt 0.000000 1.000000
vt 0.000000 1.000000
vt 0.000000 1.000000
vt 0.000000 1.000000
vt 0.000000 1.000000
vt 0.000000 1.000000
vt 0.000000 1.000000
vt 0.000000 1.000000
vt 0.000000 1.000000
vt 0.000000 1.000000
vt 0.000000 1.000000
vt 0.000000 1.000000
vt 0.000000 1.000000
vt 0.000000 1.000000
vt 0.000000 1.000000
vt 0.000000 1.000000
vt 0.000000 1.000000
vt 0.000000 1.000000
vt 0.000000 1.000000
vt 0.000000 1.000000
vt 0.000000 1.000000
vt 0.000000 1.000000
vt 0.000000 1.000000
vt 0.000000 1.000000
vt 0.000000 1.000000
vt 0.000000 1.000000
vt 0.000000 1.000000
vt 0.000000 1.000000
vt 0.000000 1.000000
vt 0.000000 1.000000
vt 0.000000 1.000000
vt 0.000000 1.000000
vt 0.000000 1.000000
vt 0.000000 1.000000
vt 0.000000 1.000000
vt 0.000000 1.000000
vt 0.000000 1.000000
vt 0.000000 1.000000
vt 0.000000 1.000000
vt 0.000000 1.000000
vt 0.000000 1.000000
vt 0.000000 1.000000
vt 0.000000 1.000000
vt 0.000000 1.000000
vt 0.000000 1.000000
vt 0.000000 1.000000
vt 0.000000 1.000000
vt 0.000000 1.000000
vt 0.000000 1.000000
vt 0.000000 1.000000
vt 0.000000 1.000000
vt 0.000000 1.000000
vt 0.000000 1.000000
vt 0.000000 1.000000
vt 0.000000 1.000000
vt 0.000000 1.000000
vt 0.000000 1.000000
vt 0.000000 1.000000
vt 0.000000 1.000000
vt 0.000000 1.000000
vt 0.000000 1.000000
vt 0.000000 1.000000
vt 0.000000 1.000000
vt 0.000000 1.000000
vt 0.000000 1.000000
vt 0.000000 1.000000
vt 0.000000 1.000000
vt 0.000000 1.000000
vt 0.000000 1.000000
vt 0.000000 1.000000
vt 0.000000 1.000000
vt 0.000000 1.000000
vt 0.000000 1.000000
vt 0.000000 1.000000
vt 0.000000 1.000000
vt 0.000000 1.000000
vt 0.000000 1.000000
vt 0.000000 1.000000
vt 0.000000 1.000000
vt 0.000000 1.000000
vt 0.000000 1.000000
vt 0.000000 1.000000
vt 0.000000 1.000000
vt 0.000000 1.000000
vt 0.000000 1.000000
vt 0.000000 1.000000
vt 0.000000 1.000000
vt 0.000000 1.000000
vt 0.000000 1.000000
vt 0.000000 1.000000
vt 0.000000 1.000000
vt 0.000000 1.000000
vt 0.000000 1.000000
vt 0.000000 1.000000
vt 0.000000 1.000000
vt 0.000000 1.000000
vt 0.000000 1.000000
vt 0.000000 1.000000
vt 0.000000 1.000000
vt 0.000000 1.000000
vt 0.000000 1.000000
vt 0.000000 1.000000
vt 0.000000 1.000000
vt 0.000000 1.000000
vt 0.000000 1.000000
vt 0.000000 1.000000
vt 0.000000 1.000000
vt 0.000000 1.000000
vt 0.000000 1.000000
vt 0.000000 1.000000
vt 0.000000 1.000000
vt 0.000000 1.000000
vt 0.000000 1.000000
vt 0.000000 1.000000
vt 0.000000 1.000000
vt 0.000000 1.000000
vt 0.000000 1.000000
vt 0.000000 1.000000
vt 0.000000 1.000000
vt 0.000000 1.000000
vt 0.000000 1.000000
vt 0.000000 1.000000
vt 0.000000 1.000000
vt 0.000000 1.000000
vt 0.000000 1.000000
vt 0.000000 1.000000
vt 0.000000 1.000000
vt 0.000000 1.000000
vt 0.000000 1.000000
vt 0.000000 1.000000
vt 0.000000 1.000000
vt 0.000000 1.000000
vt 0.000000 1.000000
vt 0.000000 1.000000
vt 0.000000 1.000000
vt 0.000000 1.000000
vt 0.000000 1.000000
vt 0.000000 1.000000
vt 0.000000 1.000000
vt 0.000000 1.000000
vt 0.000000 1.000000
vt 0.000000 1.000000
vt 0.000000 1.000000
vt 0.000000 1.000000
vt 0.000000 1.000000
vt 0.000000 1.000000
vt 0.000000 1.000000
vt 0.000000 1.000000
vt 0.000000 1.000000
vt 0.000000 1.000000
vt 0.000000 1.000000
vt 0.000000 1.000000
vt 0.000000 1.000000
vt 0.000000 1.000000
vt 0.000000 1.000000
vt 0.000000 1.000000
vt 0.000000 1.000000
vt 0.000000 1.000000
vt 0.000000 1.000000
vt 0.000000 1.000000
vt 0.000000 1.000000
vt 0.000000 1.000000
vt 0.000000 1.000000
vt 0.000000 1.000000
vt 0.000000 1.000000
vt 0.000000 1.000000
vt 0.000000 1.000000
vt 0.000000 1.000000
vt 0.000000 1.000000
vt 0.000000 1.000000
vt 0.000000 1.000000
vt 0.000000 1.000000
vt 0.000000 1.000000
vt 0.000000 1.000000
vt 0.000000 1.000000
vt 0.000000 1.000000
vt 0.000000 1.000000
vt 0.000000 1.000000
vt 0.000000 1.000000
vt 0.000000 1.000000
vt 0.000000 1.000000
vt 0.000000 1.000000
vt 0.000000 1.000000
vt 0.000000 1.000000
vt 0.000000 1.000000
vt 0.000000 1.000000
vt 0.000000 1.000000
vt 0.000000 1.000000
vt 0.000000 1.000000
vt 0.000000 1.000000
vt 0.000000 1.000000
vt 0.000000 1.000000
vt 0.000000 1.000000
vt 0.000000 1.000000
vt 0.000000 1.000000
vt 0.000000 1.000000
vt 0.000000 1.000000
vt 0.000000 1.000000
vt 0.000000 1.000000
vt 0.000000 1.000000
vt 0.000000 1.000000
vt 0.000000 1.000000
vt 0.000000 1.000000
vt 0.000000 1.000000
vt 0.000000 1.000000
vt 0.000000 1.000000
vt 0.000000 1.000000
vt 0.000000 1.000000
vt 0.000000 1.000000
vt 0.000000 1.000000
vt 0.000000 1.000000
vt 0.000000 1.000000
vt 0.000000 1.000000
vt 0.000000 1.000000
vt 0.000000 1.000000
vt 0.000000 1.000000
vt 0.000000 1.000000
vt 0.000000 1.000000
vt 0.000000 1.000000
vt 0.000000 1.000000
vt 0.000000 1.000000
vt 0.000000 1.000000
vt 0.000000 1.000000
vt 0.000000 1.000000
vt 0.000000 1.000000
vt 0.000000 1.000000
vt 0.000000 1.000000
vt 0.000000 1.000000
vt 0.000000 1.000000
vt 0.000000 1.000000
vt 0.000000 1.000000
vt 0.000000 1.000000
vt 0.000000 1.000000
vt 0.000000 1.000000
vt 0.000000 1.000000
vt 0.000000 1.000000
vt 0.000000 1.000000
vt 0.000000 1.000000
vt 0.000000 1.000000
vt 0.000000 1.000000
vt 0.000000 1.000000
vt 0.000000 1.000000
vt 0.000000 1.000000
vt 0.000000 1.000000
vt 0.000000 1.000000
vt 0.000000 1.000000
vt 0.000000 1.000000
vt 0.000000 1.000000
vt 0.000000 1.000000
vt 0.000000 1.000000
vt 0.000000 1.000000
vt 0.000000 1.000000
vt 0.000000 1.000000
vt 0.000000 1.000000
vt 0.000000 1.000000
vt 0.000000 1.000000
vt 0.000000 1.000000
vt 0.000000 1.000000
vt 0.000000 1.000000
vt 0.000000 1.000000
vt 0.000000 1.000000
vt 0.000000 1.000000
vt 0.000000 1.000000
vt 0.000000 1.000000
vt 0.000000 1.000000
vt 0.000000 1.000000
vt 0.000000 1.000000
vt 0.000000 1.000000
vt 0.000000 1.000000
vt 0.000000 1.000000
vt 0.000000 1.000000
vt 0.000000 1.000000
vt 0.000000 1.000000
vt 0.000000 1.000000
vt 0.000000 1.000000
vt 0.000000 1.000000
vt 0.000000 1.000000
vt 0.000000 1.000000
vt 0.000000 1.000000
vt 0.000000 1.000000
vt 0.000000 1.000000
vt 0.000000 1.000000
vt 0.000000 1.000000
vt 0.000000 1.000000
vt 0.000000 1.000000
vt 0.000000 1.000000
vt 0.000000 1.000000
vt 0.000000 1.000000
vt 0.000000 1.000000
vt 0.000000 1.000000
vt 0.000000 1.000000
vt 0.000000 1.000000
vt 0.000000 1.000000
vt 0.000000 1.000000
vt 0.000000 1.000000
vt 0.000000 1.000000
vt 0.000000 1.000000
vt 0.000000 1.000000
vt 0.000000 1.000000
vt 0.000000 1.000000
vt 0.000000 1.000000
vt 0.000000 1.000000
vt 0.000000 1.000000
vt 0.000000 1.000000
vt 0.000000 1.000000
vt 0.000000 1.000000
vt 0.000000 1.000000
vt 0.000000 1.000000
vt 0.000000 1.000000
vt 0.000000 1.000000
vt 0.000000 1.000000
vt 0.000000 1.000000
vt 0.000000 1.000000
vt 0.000000 1.000000
vt 0.000000 1.000000
vt 0.000000 1.000000
vt 0.000000 1.000000
vt 0.000000 1.000000
vt 0.000000 1.000000
vt 0.000000 1.000000
vn 0.7182 0.0973 -0.6891
vn 0.7317 -0.2708 -0.6255
vn 0.1247 -0.2442 -0.9617
vn 0.1850 -0.0682 -0.9804
vn 0.7576 0.0511 -0.6508
vn 0.9901 0.1249 -0.0643
vn 0.9834 0.1089 0.1452
vn 0.9936 0.1092 -0.0279
vn 0.9060 0.0612 -0.4187
vn 0.7204 0.0237 -0.6932
vn 0.6866 0.0708 -0.7236
vn 0.0873 -0.2792 -0.9562
vn 0.0942 -0.2247 -0.9699
vn 0.0130 -0.2327 -0.9725
vn 0.0301 -0.0946 -0.9951
vn -0.0877 -0.2039 -0.9751
vn 0.6550 -0.1060 -0.7482
vn 0.6628 0.0297 -0.7482
vn 0.5327 -0.1413 -0.8344
vn 0.5444 0.0055 -0.8388
vn 0.4018 -0.1611 -0.9014
vn 0.4154 -0.0171 -0.9095
vn 0.9866 0.0218 -0.1619
vn 0.9800 0.1248 -0.1548
vn 0.9631 0.0005 -0.2692
vn 0.9584 0.1139 -0.2619
vn 0.9229 -0.0254 -0.3843
vn 0.9210 0.0950 -0.3777
vn 0.8656 -0.0516 -0.4981
vn 0.8671 0.0700 -0.4932
vn 0.9836 0.1079 0.1442
vn 0.9801 0.1343 0.1462
vn 0.9878 0.1039 0.1162
vn 0.9819 0.1472 0.1196
vn 0.9938 0.0908 0.0639
vn 0.9863 0.1502 0.0685
vn 0.9974 0.0713 -0.0089
vn 0.9898 0.1422 -0.0034
vn 0.9943 0.0463 -0.0964
vn 0.9888 0.1182 -0.0909
vn 0.9924 0.1223 -0.0151
vn 0.9931 0.1163 -0.0156
vn 0.9892 0.1457 0.0132
vn 0.9921 0.1248 0.0116
vn 0.9872 0.1541 0.0404
vn 0.9900 0.1357 0.0390
vn 0.9870 0.1514 0.0546
vn 0.9880 0.1448 0.0540
vn 0.9893 0.1381 0.0474
vn 0.9874 0.1504 0.0483
vn 0.9938 0.1108 0.0091
vn 0.9887 0.1496 0.0123
vn 0.9231 0.1270 -0.3630
vn 0.9273 0.0775 -0.3661
vn 0.9389 0.1330 -0.3176
vn 0.9431 0.0887 -0.3206
vn 0.9515 0.1415 -0.2732
vn 0.9559 0.0997 -0.2762
vn 0.9617 0.1525 -0.2279
vn 0.9665 0.1125 -0.2308
vn 0.9694 0.1608 -0.1857
vn 0.9739 0.1269 -0.1883
vn 0.9745 0.1643 -0.1529
vn 0.9776 0.1428 -0.1546
vn 0.9774 0.1598 -0.1383
vn 0.9779 0.1568 -0.1385
vn 0.7431 0.0659 -0.6659
vn 0.7446 0.0086 -0.6675
vn 0.7822 0.0829 -0.6175
vn 0.7846 0.0180 -0.6198
vn 0.8195 0.0944 -0.5653
vn 0.8224 0.0341 -0.5679
vn 0.8513 0.1059 -0.5139
vn 0.8548 0.0493 -0.5167
vn 0.8791 0.1193 -0.4615
vn 0.8832 0.0652 -0.4645
vn 0.9032 0.1344 -0.4076
vn 0.9078 0.0843 -0.4108
vn 0.9231 0.1507 -0.3539
vn 0.9281 0.1052 -0.3572
vn 0.9382 0.1642 -0.3048
vn 0.9414 0.1404 -0.3067
vn 0.6590 0.0240 -0.7517
vn 0.6592 -0.0014 -0.7520
vn 0.6657 0.0090 -0.7462
vn 0.6653 -0.0304 -0.7459
vn 0.6955 0.0185 -0.7183
vn 0.6953 -0.0280 -0.7182
vn 0.7318 0.0347 -0.6806
vn 0.7321 -0.0166 -0.6810
vn 0.7680 0.0500 -0.6385
vn 0.7689 -0.0056 -0.6394
vn 0.8043 0.0662 -0.5906
vn 0.8058 0.0095 -0.5920
vn 0.8392 0.0857 -0.5371
vn 0.8416 0.0325 -0.5391
vn 0.8697 0.1072 -0.4818
vn 0.8726 0.0661 -0.4840
vn 0.8956 0.1432 -0.4211
vn 0.8985 0.1170 -0.4230
vn 0.7039 0.0707 -0.7068
vn 0.7053 0.0134 -0.7087
vn 0.6965 -0.0015 -0.7176
vn 0.6960 -0.0315 -0.7173
vn 0.6967 -0.0305 -0.7168
vn 0.6964 -0.0412 -0.7165
vn 0.7046 -0.0280 -0.7091
vn 0.7042 -0.0422 -0.7087
vn 0.7198 -0.0166 -0.6940
vn 0.7192 -0.0429 -0.6935
vn 0.7412 -0.0056 -0.6713
vn 0.7406 -0.0401 -0.6708
vn 0.7684 0.0096 -0.6398
vn 0.7682 -0.0260 -0.6397
vn 0.7985 0.0327 -0.6010
vn 0.7989 0.0018 -0.6014
vn 0.8286 0.0665 -0.5559
vn 0.8298 0.0379 -0.5568
vn 0.8604 0.1178 -0.4959
vn 0.8637 0.0751 -0.4984
vn -0.0763 -0.1115 -0.9908
usemtl Plane.001
s off
f 51/51/11 52/52/11 53/53/11
f 54/54/12 55/55/12 56/56/12
f 57/57/13 58/58/13 59/59/13
f 60/60/14 61/61/14 62/62/14
f 63/63/15 64/64/15 65/65/15
f 66/66/16 67/67/16 68/68/16
f 69/69/17 70/70/17 71/71/17
f 72/72/18 73/73/18 74/74/18
f 75/75/19 76/76/19 77/77/19
f 78/78/20 79/79/20 80/80/20
f 81/81/21 82/82/21 83/83/21
f 84/84/22 85/85/22 86/86/22
f 87/87/23 88/88/23 89/89/23
f 90/90/24 91/91/24 92/92/24
f 93/93/25 94/94/25 95/95/25
f 96/96/26 97/97/26 98/98/26
f 99/99/27 100/100/27 101/101/27
f 102/102/28 103/103/28 104/104/28
f 105/105/29 106/106/29 107/107/29
f 108/108/30 109/109/30 110/110/30
f 111/111/31 112/112/31 113/113/31
f 114/114/32 115/115/32 116/116/32
f 117/117/33 118/118/33 119/119/33
f 120/120/34 121/121/34 122/122/34
f 123/123/35 124/124/35 125/125/35
f 126/126/36 127/127/36 128/128/36
f 129/129/37 130/130/37 131/131/37
f 132/132/38 133/133/38 134/134/38
f 135/135/39 136/136/39 137/137/39
f 138/138/40 139/139/40 140/140/40
f 141/141/41 142/142/41 143/143/41
f 144/144/42 145/145/42 146/146/42
f 147/147/43 148/148/43 149/149/43
f 150/150/44 151/151/44 152/152/44
f 153/153/45 154/154/45 155/155/45
f 156/156/46 157/157/46 158/158/46
f 159/159/47 160/160/47 161/161/47
f 162/162/48 163/163/48 164/164/48
f 165/165/49 166/166/49 167/167/49
f 168/168/50 169/169/50 170/170/50
f 171/171/51 172/172/51 173/173/51
f 174/174/52 175/175/52 176/176/52
f 177/177/53 178/178/53 179/179/53
f 180/180/54 181/181/54 182/182/54
f 183/183/55 184/184/55 185/185/55
f 186/186/56 187/187/56 188/188/56
f 189/189/57 190/190/57 191/191/57
f 192/192/58 193/193/58 194/194/58
f 195/195/59 196/196/59 197/197/59
f 198/198/60 199/199/60 200/200/60
f 201/201/61 202/202/61 203/203/61
f 204/204/62 205/205/62 206/206/62
f 207/207/63 208/208/63 209/209/63
f 210/210/64 211/211/64 212/212/64
f 213/213/65 214/214/65 215/215/65
f 216/216/66 217/217/66 218/218/66
f 219/219/67 220/220/67 221/221/67
f 222/222/68 223/223/68 224/224/68
f 225/225/69 226/226/69 227/227/69
f 228/228/70 229/229/70 230/230/70
f 231/231/71 232/232/71 233/233/71
f 234/234/72 235/235/72 236/236/72
f 237/237/73 238/238/73 239/239/73
f 240/240/74 241/241/74 242/242/74
f 243/243/75 244/244/75 245/245/75
f 246/246/76 247/247/76 248/248/76
f 249/249/77 250/250/77 251/251/77
f 252/252/78 253/253/78 254/254/78
f 255/255/79 256/256/79 257/257/79
f 258/258/80 259/259/80 260/260/80
f 261/261/81 262/262/81 263/263/81
f 264/264/82 265/265/82 266/266/82
f 267/267/83 268/268/83 269/269/83
f 270/270/84 271/271/84 272/272/84
f 273/273/85 274/274/85 275/275/85
f 276/276/86 277/277/86 278/278/86
f 279/279/87 280/280/87 281/281/87
f 282/282/88 283/283/88 284/284/88
f 285/285/89 286/286/89 287/287/89
f 288/288/90 289/289/90 290/290/90
f 291/291/91 292/292/91 293/293/91
f 294/294/92 295/295/92 296/296/92
f 297/297/93 298/298/93 299/299/93
f 300/300/94 301/301/94 302/302/94
f 303/303/95 304/304/95 305/305/95
f 306/306/96 307/307/96 308/308/96
f 309/309/97 310/310/97 311/311/97
f 312/312/98 313/313/98 314/314/98
f 315/315/99 316/316/99 317/317/99
f 318/318/100 319/319/100 320/320/100
f 321/321/101 322/322/101 323/323/101
f 324/324/102 325/325/102 326/326/102
f 327/327/103 328/328/103 329/329/103
f 330/330/104 331/331/104 332/332/104
f 333/333/105 334/334/105 335/335/105
f 336/336/106 337/337/106 338/338/106
f 339/339/107 340/340/107 341/341/107
f 342/342/108 343/343/108 344/344/108
f 345/345/109 346/346/109 347/347/109
f 348/348/110 349/349/110 350/350/110
f 351/351/111 352/352/111 353/353/111
f 354/354/112 355/355/112 356/356/112
f 357/357/113 358/358/113 359/359/113
f 360/360/114 361/361/114 362/362/114
f 363/363/115 364/364/115 365/365/115
f 366/366/116 367/367/116 368/368/116
f 369/369/117 370/370/117 371/371/117
f 372/372/118 373/373/118 374/374/118
f 375/375/119 376/376/119 377/377/119
f 378/378/120 379/379/120 380/380/120
f 381/381/121 382/382/121 383/383/121
f 384/384/122 385/385/122 386/386/122
f 387/387/123 388/388/123 389/389/123
f 390/390/124 391/391/124 392/392/124
f 393/393/125 394/394/125 395/395/125
f 396/396/126 397/397/126 398/398/126
f 399/399/127 400/400/127 401/401/127
f 402/402/128 403/403/128 404/404/128
f 405/405/129 406/406/129 407/407/129
f 408/408/130 409/409/130 410/410/130
s 1
f 411/411/131 412/412/131 413/413/131
o Circle_Circle.001
v 0.000000 0.000000 -0.160426
v -0.031298 0.000000 -0.157343
v -0.061392 0.000000 -0.148214
v -0.089128 0.000000 -0.133389
v -0.113438 0.000000 -0.113438
v -0.133389 0.000000 -0.089128
v -0.148214 0.000000 -0.061392
v -0.157343 0.000000 -0.031298
v -0.160426 0.000000 0.000000
v -0.157343 0.000000 0.031298
v -0.148214 0.000000 0.061392
v -0.133389 0.000000 0.089128
v -0.113438 0.000000 0.113438
v -0.089128 0.000000 0.133389
v -0.061392 0.000000 0.148214
v -0.031298 0.000000 0.157343
v 0.000000 0.000000 0.160426
v 0.031298 0.000000 0.157343
v 0.061392 0.000000 0.148214
v 0.089128 0.000000 0.133389
v 0.113438 0.000000 0.113438
v 0.133389 0.000000 0.089128
v 0.148214 0.000000 0.061392
v 0.157343 0.000000 0.031298
v 0.160426 0.000000 -0.000000
v 0.157343 0.000000 -0.031298
v 0.148214 0.000000 -0.061392
v 0.133389 0.000000 -0.089128
v 0.113438 0.000000 -0.113438
v 0.089128 0.000000 -0.133389
v 0.061392 0.000000 -0.148214
v 0.031298 0.000000 -0.157343
vt 0.009607 0.597545
vt 0.402455 0.009607
vt 0.990393 0.402455
vt 0.597545 0.990393
vt 0.500000 1.000000
vt 0.402455 0.990393
vt 0.308658 0.961940
vt 0.222215 0.915735
vt 0.146447 0.853553
vt 0.084265 0.777785
vt 0.038060 0.691342
vt 0.000000 0.500000
vt 0.009607 0.402455
vt 0.038060 0.308658
vt 0.084265 0.222215
vt 0.146447 0.146447
vt 0.222215 0.084265
vt 0.308658 0.038060
vt 0.500000 0.000000
vt 0.597545 0.009607
vt 0.691342 0.038060
vt 0.777785 0.084265
vt 0.853553 0.146447
vt 0.915735 0.222215
vt 0.961940 0.308658
vt 1.000000 0.500000
vt 0.990393 0.597545
vt 0.961940 0.691342
vt 0.915735 0.777785
vt 0.853553 0.853553
vt 0.777785 0.915735
vt 0.691342 0.961940
vn 0.0000 1.0000 0.0000
usemtl Material.001
s off
f 421/414/132 429/415/132 437/416/132
f 445/417/132 414/418/132 415/419/132
f 415/419/132 416/420/132 417/421/132
f 417/421/132 418/422/132 419/423/132
f 419/423/132 420/424/132 421/414/132
f 421/414/132 422/425/132 423/426/132
f 423/426/132 424/427/132 425/428/132
f 425/428/132 426/429/132 427/430/132
f 427/430/132 428/431/132 429/415/132
f 429/415/132 430/432/132 431/433/132
f 431/433/132 432/434/132 433/435/132
f 433/435/132 434/436/132 435/437/132
f 435/437/132 436/438/132 437/416/132
f 437/416/132 438/439/132 439/440/132
f 439/440/132 440/441/132 437/416/132
f 440/441/132 441/442/132 437/416/132
f 441/442/132 442/443/132 443/444/132
f 443/444/132 444/445/132 441/442/132
f 444/445/132 445/417/132 441/442/132
f 445/417/132 415/419/132 421/414/132
f 415/419/132 417/421/132 421/414/132
f 417/421/132 419/423/132 421/414/132
f 421/414/132 423/426/132 425/428/132
f 425/428/132 427/430/132 421/414/132
f 427/430/132 429/415/132 421/414/132
f 429/415/132 431/433/132 437/416/132
f 431/433/132 433/435/132 437/416/132
f 433/435/132 435/437/132 437/416/132
f 437/416/132 441/442/132 445/417/132
f 445/417/132 421/414/132 437/416/132
