# Blender v3.2.1 OBJ File: 'Box.blend'
# www.blender.org
mtllib Box.mtl
o Box009_Mesh
v -0.080238 0.000000 0.080238
v 0.080238 0.000000 0.080238
v -0.080238 -0.000000 -0.080238
v 0.080238 -0.000000 -0.080238
v -0.080238 0.160476 0.080238
v 0.080238 0.160476 0.080238
v -0.080238 0.160476 -0.080238
v 0.080238 0.160476 -0.080238
v -0.065649 0.014589 0.080238
v 0.065649 0.014589 0.080238
v 0.065649 0.145887 0.080238
v -0.065649 0.145887 0.080238
v 0.080238 0.014589 0.065649
v 0.080238 0.014589 -0.065649
v 0.080238 0.145887 -0.065649
v 0.080238 0.145887 0.065649
v 0.065649 0.014589 -0.080238
v -0.065649 0.014589 -0.080238
v -0.065649 0.145887 -0.080238
v 0.065649 0.145887 -0.080238
v -0.080238 0.014589 -0.065649
v -0.080238 0.014589 0.065649
v -0.080238 0.145887 0.065649
v -0.080238 0.145887 -0.065649
v -0.062732 0.017506 0.071485
v 0.062732 0.017506 0.071485
v 0.062732 0.142970 0.071485
v -0.062732 0.142970 0.071485
v 0.071485 0.017506 0.062732
v 0.071485 0.017506 -0.062732
v 0.071485 0.142970 -0.062732
v 0.071485 0.142970 0.062732
v 0.062732 0.017506 -0.071485
v -0.062732 0.017506 -0.071485
v -0.062732 0.142970 -0.071485
v 0.062732 0.142970 -0.071485
v -0.071485 0.017506 -0.062732
v -0.071485 0.017506 0.062732
v -0.071485 0.142970 0.062732
v -0.071485 0.142970 -0.062732
v -0.075861 0.000000 0.075861
v -0.075861 -0.000000 -0.075861
v 0.075861 -0.000000 -0.075861
v 0.075861 0.000000 0.075861
v -0.075861 0.160476 0.075861
v 0.075861 0.160476 0.075861
v 0.075861 0.160476 -0.075861
v -0.075861 0.160476 -0.075861
v -0.075861 -0.004377 0.075861
v -0.075861 -0.004377 -0.075861
v 0.075861 -0.004377 -0.075861
v 0.075861 -0.004377 0.075861
v -0.075861 0.164853 0.075861
v 0.075861 0.164853 0.075861
v 0.075861 0.164853 -0.075861
v -0.075861 0.164853 -0.075861
v -0.060607 0.151166 0.069277
v -0.070923 0.140850 0.069277
v 0.071100 0.019459 0.069277
v 0.060784 0.009143 0.069277
v -0.061748 0.150025 0.076667
v -0.069782 0.141991 0.076667
v 0.069959 0.018319 0.076667
v 0.061924 0.010284 0.076667
v -0.065765 0.146008 0.076667
v 0.065942 0.014301 0.076667
v -0.071091 0.019459 0.069277
v -0.060776 0.009143 0.069277
v 0.060615 0.151166 0.069277
v 0.070931 0.140850 0.069277
v -0.069951 0.018319 0.076667
v -0.061916 0.010284 0.076667
v 0.061756 0.150025 0.076667
v 0.069791 0.141991 0.076667
v -0.065934 0.014301 0.076667
v 0.065773 0.146008 0.076667
v -0.070731 0.019459 -0.071099
v -0.070731 0.009143 -0.060783
v -0.070731 0.151166 0.060608
v -0.070731 0.140850 0.070924
v -0.078122 0.018319 -0.069958
v -0.078122 0.010284 -0.061923
v -0.078122 0.150025 0.061749
v -0.078122 0.141991 0.069783
v -0.078122 0.014301 -0.065941
v -0.078122 0.146008 0.065766
v 0.071093 0.019459 -0.072877
v 0.060777 0.009143 -0.072877
v -0.060614 0.151166 -0.072877
v -0.070930 0.140850 -0.072877
v 0.069952 0.018319 -0.080268
v 0.061917 0.010284 -0.080268
v -0.061755 0.150025 -0.080268
v -0.069789 0.141991 -0.080268
v 0.065935 0.014301 -0.080268
v -0.065772 0.146008 -0.080268
v 0.060616 0.151166 -0.072877
v 0.070932 0.140850 -0.072877
v -0.071091 0.019459 -0.072877
v -0.060775 0.009143 -0.072877
v 0.061756 0.150025 -0.080268
v 0.069791 0.141991 -0.080268
v -0.069950 0.018319 -0.080268
v -0.061916 0.010284 -0.080268
v 0.065774 0.146008 -0.080268
v -0.065933 0.014301 -0.080268
v 0.071423 0.019459 0.067498
v 0.071423 0.009143 0.057182
v 0.071423 0.151166 -0.064209
v 0.071423 0.140850 -0.074525
v 0.078814 0.018319 0.066358
v 0.078814 0.010284 0.058323
v 0.078814 0.150025 -0.065349
v 0.078814 0.141991 -0.073384
v 0.078814 0.014301 0.062340
v 0.078814 0.146008 -0.069367
vt 0.494190 0.962400
vt 0.084671 0.962400
vt 0.494190 0.552880
vt 0.084671 0.552880
vt 0.494191 0.962400
vt 0.084671 0.962400
vt 0.084671 0.552880
vt 0.494191 0.552880
vt 0.912996 0.924185
vt 0.576885 0.924185
vt 0.576885 0.588074
vt 0.912996 0.588074
vt 0.452163 0.466339
vt 0.116052 0.466339
vt 0.116052 0.130228
vt 0.452163 0.130228
vt 0.576885 0.924185
vt 0.912996 0.924185
vt 0.912996 0.588074
vt 0.576885 0.588074
vt 0.452163 0.466339
vt 0.116052 0.466339
vt 0.116052 0.130228
vt 0.452162 0.130228
vt 0.525390 0.536579
vt 0.964491 0.536579
vt 0.926403 0.574666
vt 0.563477 0.574666
vt 0.964491 0.975680
vt 0.926403 0.937593
vt 0.525390 0.975680
vt 0.563477 0.937593
vt 0.064557 0.078733
vt 0.503658 0.078733
vt 0.465570 0.116820
vt 0.102644 0.116820
vt 0.503658 0.517834
vt 0.465570 0.479746
vt 0.064557 0.517834
vt 0.102644 0.479746
vt 0.964491 0.536579
vt 0.525390 0.536579
vt 0.563477 0.574666
vt 0.926403 0.574666
vt 0.525390 0.975680
vt 0.563477 0.937593
vt 0.964491 0.975680
vt 0.926403 0.937593
vt 0.064557 0.078733
vt 0.503657 0.078733
vt 0.465570 0.116820
vt 0.102644 0.116820
vt 0.503658 0.517834
vt 0.465570 0.479746
vt 0.064557 0.517834
vt 0.102644 0.479746
vt 0.061045 0.974213
vt 0.061045 0.541067
vt 0.072858 0.552880
vt 0.072858 0.962400
vt 0.072858 0.529254
vt 0.506004 0.529254
vt 0.494190 0.541067
vt 0.084671 0.541067
vt 0.517817 0.541067
vt 0.517817 0.974213
vt 0.506004 0.962400
vt 0.506004 0.552880
vt 0.506004 0.986026
vt 0.072858 0.986026
vt 0.084671 0.974213
vt 0.494190 0.974213
vt 0.072858 0.529254
vt 0.506004 0.529254
vt 0.494191 0.541067
vt 0.084671 0.541067
vt 0.517817 0.541067
vt 0.517817 0.974213
vt 0.506004 0.962400
vt 0.506004 0.552880
vt 0.506004 0.986026
vt 0.072858 0.986026
vt 0.084671 0.974213
vt 0.494191 0.974213
vt 0.061045 0.974213
vt 0.061045 0.541067
vt 0.072858 0.552880
vt 0.072858 0.962400
vt 0.726855 0.016238
vt 0.712712 0.519813
vt 0.712712 0.016238
vt 0.726855 0.519813
vt 0.698570 0.016238
vt 0.698570 0.519813
vt 0.678624 0.519813
vt 0.678624 0.016238
vt 0.746801 0.519813
vt 0.746801 0.016238
vt 0.619886 0.015694
vt 0.634029 0.519269
vt 0.619886 0.519269
vt 0.634029 0.015694
vt 0.648171 0.519269
vt 0.648171 0.015694
vt 0.668117 0.015694
vt 0.668117 0.519269
vt 0.599940 0.015694
vt 0.599941 0.519269
vt 0.540162 0.518648
vt 0.540162 0.015072
vt 0.554305 0.015072
vt 0.554305 0.518648
vt 0.568447 0.518648
vt 0.588393 0.015072
vt 0.588393 0.518648
vt 0.568447 0.015073
vt 0.520216 0.015072
vt 0.520216 0.518648
vt 0.854374 0.014682
vt 0.868517 0.518257
vt 0.854374 0.518257
vt 0.868517 0.014682
vt 0.902605 0.014682
vt 0.902605 0.518257
vt 0.882659 0.518257
vt 0.882659 0.014682
vt 0.834428 0.014682
vt 0.834428 0.518257
vt 0.791453 0.015510
vt 0.805596 0.519086
vt 0.791453 0.519086
vt 0.805596 0.015510
vt 0.777311 0.015510
vt 0.777311 0.519086
vt 0.757365 0.519086
vt 0.757365 0.015510
vt 0.825542 0.519086
vt 0.825542 0.015510
vt 0.933651 0.517698
vt 0.933651 0.014122
vt 0.947793 0.014122
vt 0.947793 0.517698
vt 0.961936 0.517698
vt 0.961936 0.014122
vt 0.981882 0.014122
vt 0.981882 0.517698
vt 0.913705 0.517698
vt 0.913705 0.014122
vn 0.0000 -1.0000 0.0000
vn 0.0000 1.0000 0.0000
vn 0.0000 0.0000 1.0000
vn 1.0000 0.0000 0.0000
vn 0.0000 -0.0000 -1.0000
vn -1.0000 -0.0000 0.0000
vn 0.0000 0.9487 0.3162
vn -0.9487 -0.0000 0.3162
vn 0.0000 -0.9487 0.3162
vn 0.9487 0.0000 0.3162
vn 0.3162 0.9487 -0.0000
vn 0.3162 0.0000 0.9487
vn 0.3162 -0.9487 0.0000
vn 0.3162 -0.0000 -0.9487
vn 0.0000 0.9487 -0.3162
vn 0.9487 -0.0000 -0.3162
vn 0.0000 -0.9487 -0.3162
vn -0.9487 -0.0000 -0.3162
vn -0.3162 0.9487 -0.0000
vn -0.3162 -0.0000 -0.9487
vn -0.3162 -0.9487 0.0000
vn -0.3162 0.0000 0.9487
vn -0.6908 -0.6908 0.2132
vn 0.6908 0.6908 0.2132
vn 0.6908 -0.6908 0.2132
vn -0.6908 0.6908 0.2132
vn -0.2132 -0.6908 0.6908
vn -0.2132 0.6908 -0.6908
vn -0.6908 -0.6908 -0.2132
vn 0.6908 0.6908 -0.2132
vn 0.6908 -0.6908 -0.2132
vn -0.6908 0.6908 -0.2132
vn 0.2132 -0.6908 -0.6908
vn 0.2132 0.6908 0.6908
usemtl Box
s 1
f 52/1/1 49/2/1 51/3/1
f 49/2/1 50/4/1 51/3/1
f 55/5/2 56/6/2 53/7/2
f 55/5/2 53/7/2 54/8/2
usemtl BoxInner
f 27/9/3 28/10/3 25/11/3
f 27/9/3 25/11/3 26/12/3
f 31/13/4 32/14/4 29/15/4
f 31/13/4 29/15/4 30/16/4
f 35/17/5 36/18/5 33/19/5
f 35/17/5 33/19/5 34/20/5
f 39/21/6 40/22/6 37/23/6
f 39/21/6 37/23/6 38/24/6
usemtl Box
s off
f 1/25/3 2/26/3 10/27/3
f 1/25/3 10/27/3 9/28/3
f 2/26/3 6/29/3 11/30/3
f 2/26/3 11/30/3 10/27/3
f 6/29/3 5/31/3 12/32/3
f 6/29/3 12/32/3 11/30/3
f 5/31/3 1/25/3 9/28/3
f 5/31/3 9/28/3 12/32/3
f 2/33/4 4/34/4 14/35/4
f 2/33/4 14/35/4 13/36/4
f 4/34/4 8/37/4 15/38/4
f 4/34/4 15/38/4 14/35/4
f 8/37/4 6/39/4 16/40/4
f 8/37/4 16/40/4 15/38/4
f 6/39/4 2/33/4 13/36/4
f 6/39/4 13/36/4 16/40/4
f 4/41/5 3/42/5 18/43/5
f 4/41/5 18/43/5 17/44/5
f 3/42/5 7/45/5 19/46/5
f 3/42/5 19/46/5 18/43/5
f 7/45/5 8/47/5 20/48/5
f 7/45/5 20/48/5 19/46/5
f 8/47/5 4/41/5 17/44/5
f 8/47/5 17/44/5 20/48/5
f 3/49/6 1/50/6 22/51/6
f 3/49/6 22/51/6 21/52/6
f 1/50/6 5/53/6 23/54/6
f 1/50/6 23/54/6 22/51/6
f 5/53/6 7/55/6 24/56/6
f 5/53/6 24/56/6 23/54/6
f 7/55/6 3/49/6 21/52/6
f 7/55/6 21/52/6 24/56/6
f 9/28/7 10/27/7 26/12/7
f 9/28/7 26/12/7 25/11/7
f 27/9/8 10/27/8 11/30/8
f 10/27/8 27/9/8 26/12/8
f 11/30/9 12/32/9 28/10/9
f 11/30/9 28/10/9 27/9/9
f 25/11/10 28/10/10 12/32/10
f 12/32/10 9/28/10 25/11/10
f 30/16/11 13/36/11 14/35/11
f 13/36/11 30/16/11 29/15/11
f 31/13/12 14/35/12 15/38/12
f 14/35/12 31/13/12 30/16/12
f 32/14/13 15/38/13 16/40/13
f 15/38/13 32/14/13 31/13/13
f 29/15/14 32/14/14 16/40/14
f 16/40/14 13/36/14 29/15/14
f 17/44/15 18/43/15 34/20/15
f 17/44/15 34/20/15 33/19/15
f 35/17/16 18/43/16 19/46/16
f 18/43/16 35/17/16 34/20/16
f 19/46/17 20/48/17 36/18/17
f 19/46/17 36/18/17 35/17/17
f 33/19/18 36/18/18 20/48/18
f 20/48/18 17/44/18 33/19/18
f 38/24/19 37/23/19 21/52/19
f 21/52/19 22/51/19 38/24/19
f 39/21/20 22/51/20 23/54/20
f 22/51/20 39/21/20 38/24/20
f 40/22/21 39/21/21 23/54/21
f 23/54/21 24/56/21 40/22/21
f 37/23/22 40/22/22 24/56/22
f 24/56/22 21/52/22 37/23/22
f 1/57/1 3/58/1 42/59/1
f 1/57/1 42/59/1 41/60/1
f 3/61/1 4/62/1 43/63/1
f 3/61/1 43/63/1 42/64/1
f 4/65/1 2/66/1 44/67/1
f 4/65/1 44/67/1 43/68/1
f 2/69/1 1/70/1 41/71/1
f 2/69/1 41/71/1 44/72/1
f 5/73/2 6/74/2 46/75/2
f 5/73/2 46/75/2 45/76/2
f 6/77/2 8/78/2 47/79/2
f 6/77/2 47/79/2 46/80/2
f 8/81/2 7/82/2 48/83/2
f 8/81/2 48/83/2 47/84/2
f 7/85/2 5/86/2 45/87/2
f 7/85/2 45/87/2 48/88/2
f 41/60/6 42/59/6 50/4/6
f 41/60/6 50/4/6 49/2/6
f 42/64/5 43/63/5 51/3/5
f 42/64/5 51/3/5 50/4/5
f 43/68/4 44/67/4 52/1/4
f 43/68/4 52/1/4 51/3/4
f 44/72/3 41/71/3 49/2/3
f 44/72/3 49/2/3 52/1/3
f 54/8/3 53/7/3 45/76/3
f 54/8/3 45/76/3 46/75/3
f 55/5/4 54/8/4 46/80/4
f 55/5/4 46/80/4 47/79/4
f 56/6/5 55/5/5 47/84/5
f 56/6/5 47/84/5 48/83/5
f 53/7/6 56/6/6 48/88/6
f 53/7/6 48/88/6 45/87/6
s 1
f 63/89/3 65/90/3 66/91/3
f 65/90/3 63/89/3 61/92/3
f 64/93/23 62/94/23 58/95/23
f 58/95/23 60/96/23 64/93/23
f 57/97/24 63/89/24 59/98/24
f 63/89/24 57/97/24 61/92/24
f 66/91/3 62/94/3 64/93/3
f 62/94/3 66/91/3 65/90/3
f 71/99/3 76/100/3 73/101/3
f 76/100/3 71/99/3 75/102/3
f 74/103/25 72/104/25 68/105/25
f 74/103/25 68/105/25 70/106/25
f 73/101/26 67/107/26 71/99/26
f 67/107/26 73/101/26 69/108/26
f 76/100/3 75/102/3 72/104/3
f 72/104/3 74/103/3 76/100/3
f 83/109/6 81/110/6 85/111/6
f 85/111/6 86/112/6 83/109/6
f 84/113/27 78/114/27 80/115/27
f 78/114/27 84/113/27 82/116/27
f 83/109/28 77/117/28 81/110/28
f 77/117/28 83/109/28 79/118/28
f 86/112/6 85/111/6 82/116/6
f 82/116/6 84/113/6 86/112/6
f 91/119/5 96/120/5 93/121/5
f 96/120/5 91/119/5 95/122/5
f 88/123/29 90/124/29 94/125/29
f 88/123/29 94/125/29 92/126/29
f 93/121/30 87/127/30 91/119/30
f 87/127/30 93/121/30 89/128/30
f 96/120/5 95/122/5 92/126/5
f 92/126/5 94/125/5 96/120/5
f 106/129/5 101/130/5 105/131/5
f 101/130/5 106/129/5 103/132/5
f 104/133/31 102/134/31 98/135/31
f 98/135/31 100/136/31 104/133/31
f 103/132/32 97/137/32 101/130/32
f 97/137/32 103/132/32 99/138/32
f 104/133/5 105/131/5 102/134/5
f 105/131/5 104/133/5 106/129/5
f 113/139/4 111/140/4 115/141/4
f 115/141/4 116/142/4 113/139/4
f 114/143/33 112/144/33 108/145/33
f 108/145/33 110/146/33 114/143/33
f 111/140/34 113/139/34 109/147/34
f 109/147/34 107/148/34 111/140/34
f 115/141/4 114/143/4 116/142/4
f 114/143/4 115/141/4 112/144/4
